<?xml version="1.0" encoding="UTF-8" standalone="no"?>
<!-- Created with Inkscape (http://www.inkscape.org/) -->

<svg
   xmlns:dc="http://purl.org/dc/elements/1.1/"
   xmlns:cc="http://creativecommons.org/ns#"
   xmlns:rdf="http://www.w3.org/1999/02/22-rdf-syntax-ns#"
   xmlns:svg="http://www.w3.org/2000/svg"
   xmlns="http://www.w3.org/2000/svg"
   xmlns:sodipodi="http://sodipodi.sourceforge.net/DTD/sodipodi-0.dtd"
   xmlns:inkscape="http://www.inkscape.org/namespaces/inkscape"
   id="svg3039"
   version="1.1"
   inkscape:version="0.48.5 r10040"
   width="160"
   height="160"
   sodipodi:docname="aeronaval.svg">
  <metadata
     id="metadata3045">
    <rdf:RDF>
      <cc:Work
         rdf:about="">
        <dc:format>image/svg+xml</dc:format>
        <dc:type
           rdf:resource="http://purl.org/dc/dcmitype/StillImage" />
        <dc:title />
      </cc:Work>
    </rdf:RDF>
  </metadata>
  <defs
     id="defs3043" />
  <sodipodi:namedview
     pagecolor="#ffffff"
     bordercolor="#666666"
     borderopacity="1"
     objecttolerance="10"
     gridtolerance="10"
     guidetolerance="10"
     inkscape:pageopacity="0"
     inkscape:pageshadow="2"
     inkscape:window-width="1920"
     inkscape:window-height="997"
     id="namedview3041"
     showgrid="false"
     inkscape:zoom="2.8284271"
     inkscape:cx="96.015994"
     inkscape:cy="74.835995"
     inkscape:window-x="1366"
     inkscape:window-y="0"
     inkscape:window-maximized="1"
     inkscape:current-layer="svg3039" />
  <path
     style="fill:#000000"
     d=""
     id="path3076"
     inkscape:connector-curvature="0" />
  <text
     xml:space="preserve"
     style="font-size:37.59007645px;line-height:125%"
     x="-226.77536"
     y="43.884197"
     id="text3270"
     sodipodi:linespacing="125%"
     transform="matrix(0,-0.37387652,2.6746799,0,0,0)"><tspan
       sodipodi:role="line"
       id="tspan3272"
       x="-226.77536"
       y="43.884197">8</tspan></text>
  <g
     id="g3073"
     transform="translate(-1.9569131,4.7114901)">
    <path
       inkscape:connector-curvature="0"
       id="path3076-3"
       d=""
       style="fill:#000000" />
    <path
       d="m 82.790632,130.01597 c -0.27544,-0.49457 -1.17896,-1.82781 -1.6921,-2.49684 -0.65507,-0.8541 -2.49825,-2.73044 -3.36346,-3.424 -1.68508,-1.35076 -3.82067,-2.61504 -5.84773,-3.46187 -0.28284,-0.11816 -1.05083,-0.36311 -1.70664,-0.54434 -4.69872,-1.29841 -8.64688,-3.00402 -11.86061,-5.12378 -1.01919,-0.67226 -2.80165,-2.01342 -3.83893,-2.8885 -3.89649,-3.2872 -6.39147,-6.87047 -7.41657,-10.65166 l -0.19404,-0.71572 -0.22913,-0.0196 c -0.49548,-0.0423 -1.41604,0.21505 -2.22835,0.62298 -0.61481,0.30876 -1.07675,0.63238 -1.72265,1.20686 -0.25927,0.2306 -0.48146,0.40911 -0.49374,0.39672 -0.045,-0.0454 -0.19177,-0.91432 -0.27705,-1.64002 -0.11399,-0.96998 -0.11294,-2.77736 0.002,-3.68031 0.59359,-4.657869 2.89152,-8.958418 7.30053,-13.662866 l 0.63015,-0.672381 0.31252,0.910958 c 1.54321,4.498265 3.52446,8.128656 6.20969,11.378439 0.60663,0.73417 1.64254,1.85634 2.19737,2.38034 0.1869,0.1765 0.33983,0.33862 0.33983,0.36025 0,0.0216 -0.2859,0.002 -0.63532,-0.0441 -0.34943,-0.0458 -1.16722,-0.0857 -1.81732,-0.0884 -1.18697,-0.005 -2.15375,0.1057 -2.9129,0.33361 l -0.25342,0.0761 0.54892,0.74318 c 2.29794,3.11114 4.94304,5.48633 7.96087,7.1485 0.89678,0.49394 2.36712,0.89989 3.92878,1.0847 0.75692,0.0896 2.63445,0.0353 3.19777,-0.0925 2.17018,-0.49225 3.74468,-1.6035 5.03194,-3.55144 0.4462,-0.67522 1.23328,-2.17291 1.43763,-2.73559 0.93649,-2.57873 1.45997,-7.0399 1.6561,-14.113771 0.0327,-1.18095 0.0601,-2.831589 0.0608,-3.668091 7.1e-4,-0.83651 0.13133,-5.520034 0.29025,-10.407838 0.15893,-4.887813 0.2818,-8.894325 0.27304,-8.903365 -0.009,-0.009 -2.51584,-0.07211 -5.57128,-0.140189 l -5.55534,-0.123754 -0.59737,0.448665 c -2.60153,1.953947 -5.33674,2.609297 -7.98579,1.913356 -1.49264,-0.392139 -2.8716,-1.126787 -3.64055,-1.939507 -1.00019,-1.05715 -1.58892,-2.102157 -1.80153,-3.197791 -0.091,-0.469283 -0.0449,-1.5878 0.0855,-2.0737 0.27667,-1.030553 1.24886,-2.54307 1.92846,-3.000259 0.79217,-0.532924 2.22974,-1.192622 3.18873,-1.463307 1.21348,-0.342515 2.76212,-0.409768 3.91297,-0.169918 1.4879,0.31009 2.9206,0.978066 4.27735,1.994244 l 0.61716,0.462245 5.87959,0 5.87961,0 5.8e-4,-0.313136 c 7.5e-4,-0.551618 0.1124,-4.223939 0.15079,-4.973972 l 0.0371,-0.72435 -0.7591,-0.38364 c -1.43015,-0.722776 -2.32346,-1.352586 -3.2413,-2.285218 -1.42374,-1.446698 -2.18543,-3.018754 -2.48417,-5.127217 -0.13381,-0.944432 -0.11338,-1.806848 0.0582,-2.452823 0.48409,-1.82353 1.14174,-3.008727 2.33031,-4.199664 1.28383,-1.286384 2.79352,-2.098842 4.86715,-2.619323 2.47524,-0.621286 4.72035,-0.620737 7.20319,0.0016 3.93674,0.987012 6.37314,3.404659 7.32838,7.271977 0.19651,0.795562 0.21867,1.443182 0.0837,2.445397 -0.41072,3.049762 -2.15388,5.279331 -5.39484,6.900208 l -0.90128,0.45074 0,2.035415 c 0,1.119479 0.0174,2.495179 0.0386,3.057118 l 0.0384,1.021703 5.53155,-0.03133 5.53155,-0.03125 0.32505,-0.251585 c 2.977198,-2.304342 6.249038,-2.808514 9.598148,-1.479026 1.13425,0.450262 1.49939,0.675394 2.17286,1.339712 1.00317,0.989557 1.59888,1.917387 1.89176,2.946493 0.26518,0.931759 0.15366,2.083877 -0.29931,3.092079 -0.21203,0.471922 -0.7238,1.255375 -1.15861,1.773684 -0.78388,0.934398 -2.82144,1.927946 -4.581,2.233751 -0.90214,0.15679 -2.33158,0.143193 -3.33562,-0.03173 -1.01442,-0.176733 -1.63011,-0.36272 -2.37556,-0.717577 -0.74608,-0.355166 -1.266558,-0.697881 -1.903578,-1.253418 l -0.4796,-0.418259 -5.15096,0 -5.15094,0 0.0375,2.728708 c 0.0207,1.500781 0.052,6.821753 0.0695,11.824373 l 0.032,9.095677 0.32412,6.202943 0.32414,6.20295 0.18341,0.70337 c 0.50415,1.93349 1.32497,3.47272 2.47344,4.63825 0.8838,0.89692 1.81349,1.48134 2.93504,1.84499 1.13542,0.36817 1.89135,0.47781 3.28948,0.4771 1.89045,-8e-4 3.752118,-0.32313 6.068198,-1.05011 0.68864,-0.21614 0.98463,-0.34627 1.50705,-0.66252 2.15125,-1.30235 3.91944,-2.7536 5.10692,-4.19159 0.61953,-0.75023 0.94259,-1.22402 1.31492,-1.92846 l 0.27846,-0.52684 -0.33607,-0.1509 c -0.58026,-0.26054 -2.024,-0.72253 -2.67051,-0.85453 -0.89728,-0.18322 -1.88594,-0.29682 -2.58336,-0.29682 -0.33441,0 -0.60646,-0.0201 -0.60454,-0.0448 0.002,-0.0245 0.338,-0.28629 0.74687,-0.58153 1.18665,-0.85686 2.15269,-1.69568 3.35943,-2.91696 2.69552,-2.728036 4.7677,-5.720054 6.79281,-9.808194 l 0.5708,-1.152302 0.66254,0.676126 c 2.93491,2.995154 4.54353,6.395679 5.07399,10.72612 0.0996,0.81313 0.10088,4.40255 0.002,5.18901 -0.15603,1.23892 -0.33243,2.38763 -0.36429,2.37221 -0.0185,-0.009 -0.41926,-0.20934 -0.89057,-0.4453 -0.47132,-0.23595 -1.14031,-0.5235 -1.48664,-0.63897 -0.67589,-0.22536 -1.93745,-0.49001 -2.07743,-0.43581 -0.0481,0.0186 -0.10367,0.15688 -0.1275,0.31724 -0.0232,0.15631 -0.146,0.70902 -0.2728,1.22825 -1.15324,4.72194 -3.59222,8.54935 -7.17583,11.2608 -1.07585,0.81403 -2.28963,1.54856 -4.19615,2.53943 -3.40164,1.7679 -7.006158,3.16036 -12.092788,4.67156 -4.60843,1.36913 -8.53486,4.39151 -11.1808,8.60644 -0.20144,0.32089 -0.38131,0.5837 -0.3997,0.58402 -0.0184,6e-4 -0.0953,-0.11047 -0.17087,-0.24618 z m 0.99939,-83.704838 c 2.4153,-0.462396 3.66589,-1.852592 3.59749,-3.999094 -0.0186,-0.581689 -0.0288,-0.621707 -0.29728,-1.163052 -0.61165,-1.233167 -1.4313,-1.925155 -2.69127,-2.2721 -0.38152,-0.105059 -0.62698,-0.126488 -1.46312,-0.127737 -1.20189,-0.0016 -1.69485,0.08643 -2.43243,0.435252 -1.31985,0.624196 -2.02582,1.634346 -2.20987,3.161995 -0.0794,0.659365 -0.0373,0.882158 0.30138,1.592307 0.64516,1.352865 1.71839,2.124485 3.30126,2.373478 0.69455,0.109266 1.31943,0.108916 1.89384,-7.95e-4 z"
       id="path2987"
       inkscape:connector-curvature="0" />
  </g>
</svg>
