<?xml version="1.0" encoding="UTF-8" standalone="no"?>
<!-- Created with Inkscape (http://www.inkscape.org/) -->

<svg
   xmlns:dc="http://purl.org/dc/elements/1.1/"
   xmlns:cc="http://creativecommons.org/ns#"
   xmlns:rdf="http://www.w3.org/1999/02/22-rdf-syntax-ns#"
   xmlns:svg="http://www.w3.org/2000/svg"
   xmlns="http://www.w3.org/2000/svg"
   xmlns:sodipodi="http://sodipodi.sourceforge.net/DTD/sodipodi-0.dtd"
   xmlns:inkscape="http://www.inkscape.org/namespaces/inkscape"
   id="svg3039"
   version="1.1"
   inkscape:version="0.48.5 r10040"
   width="160"
   height="160"
   sodipodi:docname="aeronaval.svg">
  <metadata
     id="metadata3045">
    <rdf:RDF>
      <cc:Work
         rdf:about="">
        <dc:format>image/svg+xml</dc:format>
        <dc:type
           rdf:resource="http://purl.org/dc/dcmitype/StillImage" />
        <dc:title />
      </cc:Work>
    </rdf:RDF>
  </metadata>
  <defs
     id="defs3043" />
  <sodipodi:namedview
     pagecolor="#ffffff"
     bordercolor="#666666"
     borderopacity="1"
     objecttolerance="10"
     gridtolerance="10"
     guidetolerance="10"
     inkscape:pageopacity="0"
     inkscape:pageshadow="2"
     inkscape:window-width="1920"
     inkscape:window-height="997"
     id="namedview3041"
     showgrid="false"
     inkscape:zoom="2.8284271"
     inkscape:cx="172.5222"
     inkscape:cy="99.832379"
     inkscape:window-x="1366"
     inkscape:window-y="0"
     inkscape:window-maximized="1"
     inkscape:current-layer="svg3039" />
  <path
     style="stroke:param(outline) #ffffff"
     d=""
     id="path3076"
     inkscape:connector-curvature="0" />
  <path
     style="fill:#000000"
     d=""
     id="path3076-35"
     inkscape:connector-curvature="0" />
  <path
     style="fill:param(outline) #ffffff;stroke-width:1px;stroke-linecap:butt;stroke-linejoin:miter;stroke-opacity:1"
     d="m 117.48469,83.615895 0.70158,0.712631 0.50823,0.546903 0.39223,0.430893 0.48061,0.596621 0.27621,0.348029 0.66844,0.961223 0.31488,0.519282 0.34251,0.591097 0.43641,0.878359 0.21545,0.458515 0.17876,0.438208 0.23828,0.625 0.14063,0.433594 0.20703,0.664062 0.16015,0.578125 0.10547,0.441407 0.125,0.601562 0.0703,0.371094 0.0781,0.488281 0.0508,0.34375 0.0156,0.144531 0.043,0.296875 0.0117,0.226563 0.0312,0.582031 0.0195,2.316406 -0.0195,1.019532 -0.0117,0.375 -0.0117,0.242187 -0.0273,0.343754 -0.0586,0.44531 -0.12109,0.89453 -0.0898,0.57422 -0.0391,0.21875 -0.0469,0.25 -1.32812,-0.65625 -0.74219,-0.3125 -0.52344,-0.1875 -0.47656,-0.1211 -0.51172,-0.12109 -0.58203,-0.11719 -0.20312,-0.0195 -0.0781,0.0117 -0.0273,0.004 -0.0234,0.0273 -0.0273,0.0312 -0.0234,0.0547 -0.0195,0.0664 -0.0273,0.0937 -0.0234,0.17188 -0.14844,0.66406 -0.16797,0.71485 -0.0859,0.3164 -0.0625,0.22266 -0.0977,0.35156 -0.10547,0.33203 -0.125,0.38281 -0.30469,0.87891 -0.24609,0.58594 -0.40235,0.90625 -0.30468,0.60937 -0.44532,0.80469 -0.28515,0.48047 -0.44532,0.69141 -0.34375,0.48046 -0.5664,0.75782 -0.39453,0.46484 -0.6211,0.69141 -0.51562,0.51562 -0.48438,0.44531 -0.39453,0.35938 -0.69531,0.55469 -0.77344,0.57812 -0.74609,0.4961 -0.4961,0.3125 -0.76953,0.44531 -0.59765,0.33203 -0.53516,0.27734 -0.74219,0.39453 -0.51953,0.25782 -0.52344,0.2539 -0.71484,0.34766 -0.51953,0.23047 -1.00781,0.44922 -0.91797,0.375 -0.92578,0.36328 -0.88282,0.33594 -0.847652,0.30859 -1.496094,0.51953 -1.628906,0.52344 -1.023438,0.32031 -0.824218,0.24609 -0.617188,0.19141 -0.703125,0.25 -0.53125,0.21094 -0.835937,0.36719 -0.527344,0.2539 -0.421875,0.23047 -0.503906,0.27344 -0.574219,0.34765 -0.578125,0.3711 -0.417969,0.28906 -0.464844,0.34766 -0.515625,0.40234 -0.308593,0.24609 -0.378907,0.33594 -0.332031,0.30469 -0.269531,0.24219 -0.859375,0.8789 -0.394531,0.44922 -0.597657,0.72656 -0.402343,0.52344 -0.417969,0.58203 -0.464844,0.69532 -0.273437,0.4375 -0.171875,0.23828 -0.519532,-0.84375 -0.679687,-1.01172 -0.476563,-0.66406 -0.375,-0.47657 -0.679687,-0.77734 -1.304688,-1.33594 -0.742187,-0.69922 -0.574219,-0.47656 -0.746094,-0.56641 -0.585937,-0.40234 -0.65625,-0.43359 -0.914063,-0.55078 -0.59375,-0.33594 -1.011718,-0.52735 -0.917969,-0.41406 -0.394531,-0.17187 -0.523438,-0.17578 -1.207031,-0.36329 -0.699219,-0.19531 -0.539062,-0.15625 -0.742188,-0.23047 -0.789063,-0.25781 -0.683593,-0.23828 -0.628907,-0.22656 -0.882812,-0.33203 -0.910156,-0.36719 -0.882813,-0.38281 -0.710937,-0.33204 -0.605469,-0.27734 -0.8125,-0.41406 -1.304688,-0.71875 -0.902343,-0.53906 -0.648438,-0.41407 -0.882812,-0.61328 -0.789063,-0.58594 -0.550781,-0.41015 -0.90625,-0.70703 -0.738281,-0.60157 -1.105469,-0.97656 -0.746094,-0.71875 -0.375,-0.3789 -0.808594,-0.86329 -0.746093,-0.88281 -0.71875,-0.9375 -0.6875,-1.0039 -0.660157,-1.10547 -0.421875,-0.8125 -0.316406,-0.6836 -0.253906,-0.60547 -0.316406,-0.90625 -0.273438,-0.91015 -0.136719,-0.54688 -0.0078,-0.008 -0.08203,-0.0117 -0.136719,-0.004 -0.175781,-0.008 -0.199219,0.0156 -0.292969,0.0469 -0.355469,0.0898 -0.367187,0.11718 -0.324219,0.11329 -0.460937,0.21484 -0.449219,0.23047 -0.410156,0.2539 -0.375,0.28125 -0.34375,0.28516 -0.246094,0.21094 -0.277344,0.24219 -0.09375,0.0703 -0.08984,0.0664 -0.03125,-0.10156 -0.05078,-0.27344 L 42,101.89844 l -0.0625,-0.48828 -0.07422,-0.73047 -0.03125,-1.113284 0.0078,-0.621094 0.02344,-0.625 0.03125,-0.425781 0.02734,-0.3125 0.0625,-0.417969 0.05469,-0.347656 0.152343,-0.785156 0.09766,-0.441406 0.144531,-0.554688 0.171875,-0.589844 0.199219,-0.628906 0.144531,-0.394531 0.238281,-0.601563 0.164063,-0.386718 0.199218,-0.484376 0.277344,-0.558593 0.257813,-0.488282 0.183593,-0.347656 0.210938,-0.355469 0.21875,-0.398437 0.28125,-0.464844 0.3125,-0.496094 0.339844,-0.503906 0.519531,-0.734375 0.429687,-0.558594 0.554688,-0.730468 0.515625,-0.613282 0.582031,-0.683593 0.53125,-0.585938 1.089844,-1.175781 0.417969,1.21875 0.332031,0.945312 0.3125,0.800782 0.332031,0.804687 0.347656,0.804688 0.460938,0.972656 0.492187,1 0.347657,0.632812 0.539062,0.957032 0.253906,0.417968 0.328125,0.519532 0.519532,0.777344 0.609375,0.867187 0.484375,0.648438 0.554687,0.707031 0.367188,0.433594 0.375,0.441406 0.484375,0.535156 0.449218,0.472656 0.429688,0.457032 0.425781,0.40625 0.08984,0.09375 0.08984,0.09375 0.01953,0.03906 -0.144531,-0.0039 -0.382813,-0.04687 -0.464844,-0.03516 -0.261718,-0.02344 -0.46875,-0.02344 -0.699219,-0.01172 -0.601563,0.0078 -0.410156,0.01953 -0.394531,0.03125 -0.503906,0.04687 -0.332032,0.05859 -0.46875,0.101563 -0.503906,0.144531 0.1875,0.238281 0.8125,1.101563 0.890625,1.085943 0.574219,0.64453 0.800781,0.84765 0.347656,0.32813 0.609375,0.57422 0.628907,0.54297 0.429687,0.36328 0.429688,0.33594 0.621093,0.45312 0.527344,0.36328 0.453125,0.30469 0.476563,0.28906 0.535156,0.3125 0.371094,0.20313 0.273437,0.125 0.375,0.14843 0.46875,0.16797 0.574219,0.16016 0.6875,0.16406 0.472656,0.0937 0.597656,0.0977 0.488282,0.0586 0.460937,0.0195 0.738281,-0.004 0.472657,-0.004 0.652344,-0.043 0.460937,-0.0391 0.433594,-0.0898 0.515625,-0.14844 0.578125,-0.19922 0.382812,-0.17188 0.355469,-0.16015 0.339844,-0.19141 0.417969,-0.26562 0.394531,-0.29688 0.308594,-0.25781 0.277343,-0.27344 0.421875,-0.4414 0.394532,-0.47657 0.421875,-0.58593 0.246093,-0.40235 0.257813,-0.4414 0.269531,-0.4961 0.316406,-0.61719 0.167969,-0.375 0.160156,-0.35156 0.160157,-0.44922 0.125,-0.39062 0.171875,-0.613286 0.125,-0.570312 0.191406,-0.933594 0.144531,-0.820312 0.105469,-0.757813 0.101562,-0.761719 0.08594,-0.757812 0.08984,-0.902344 0.07422,-0.871094 0.07422,-0.917968 0.03906,-0.730469 0.02734,-0.476563 0.06641,-1.09375 0.04297,-1.054687 0.04297,-1.242188 0.05078,-1.613281 0.04297,-2.496094 -0.0039,-0.625 0.01953,-0.804687 0.01953,-1.214844 0.04297,-1.171875 0.03516,-1.339844 0.03516,-1.066406 0.02344,-1.101563 0.04297,-1.140625 0.03125,-1.1875 0.05078,-1.347656 0.03125,-0.96875 0.04687,-1.59375 0.03125,-0.964844 0.06641,-2.203125 0.09375,-3.019531 -1.125,-0.01563 L 74.953125,64 l -2.332031,-0.05469 -1.710937,-0.04687 -1.828125,-0.03516 -1.695313,-0.03906 -0.84375,-0.01953 -0.04687,0.04297 -0.117188,0.08594 -0.308593,0.238282 -0.675782,0.488281 -0.359375,0.230469 -0.414062,0.246093 -0.433594,0.234375 -0.398437,0.203125 -0.449219,0.1875 -0.453125,0.171875 -0.289063,0.101563 -0.382812,0.109375 -0.371094,0.09375 -0.324219,0.0625 -0.378906,0.0625 -0.363281,0.03906 -0.472656,0.02734 -0.355469,0.01172 -0.34375,-0.01953 -0.261719,-0.01953 -0.371094,-0.03516 -0.40625,-0.06641 -0.296875,-0.0625 -0.371093,-0.09375 L 57.472656,66.03125 57.136719,65.914062 56.695313,65.746093 56.230469,65.53125 55.777344,65.308593 55.375,65.070312 l -0.359375,-0.242187 -0.238281,-0.183594 -0.261719,-0.226563 -0.296875,-0.3125 -0.390625,-0.433593 -0.355469,-0.480469 -0.273437,-0.414063 -0.304688,-0.578125 -0.195312,-0.519531 -0.128906,-0.414062 -0.05469,-0.300782 -0.03516,-0.386718 -0.0039,-0.320313 0.01172,-0.402344 0.02734,-0.316406 0.05469,-0.394531 0.05469,-0.242188 0.148438,-0.414062 0.160156,-0.382813 0.214844,-0.394531 0.210937,-0.359375 0.257813,-0.386719 0.230468,-0.324218 0.242188,-0.28125 0.203125,-0.203125 0.207031,-0.164063 0.292969,-0.199219 0.402344,-0.230468 0.316406,-0.160157 0.367187,-0.171875 0.390625,-0.183593 0.398438,-0.167969 0.417969,-0.167969 0.414062,-0.140625 0.46875,-0.140625 0.363281,-0.07422 0.441407,-0.08203 0.464843,-0.05078 0.34375,-0.01953 0.339844,-0.02344 0.527344,0.0078 0.503906,0.03516 0.445313,0.05469 0.410156,0.08203 0.570312,0.152343 0.503907,0.164063 0.488281,0.175781 0.492187,0.226563 0.539063,0.269531 0.480469,0.273437 0.429687,0.277344 0.390625,0.257813 0.519531,0.386718 0.324219,0.242188 0.921875,-0.0039 2.382813,0.0039 3.097656,0 3.074219,-0.0039 2.277344,0 0.0039,-0.546875 0.02734,-1.257813 0.04687,-1.125 0.02734,-1.085937 0.08203,-1.996094 -0.773438,-0.386719 -0.460937,-0.242187 -0.390625,-0.222657 -0.59375,-0.347656 -0.460938,-0.316406 -0.371094,-0.289063 -0.359375,-0.289062 -0.28125,-0.253906 -0.378906,-0.378907 -0.363281,-0.402343 -0.335938,-0.425782 -0.390625,-0.515625 -0.363281,-0.613281 -0.226562,-0.453125 -0.253907,-0.636719 -0.144531,-0.457031 -0.167969,-0.613281 -0.117187,-0.601563 -0.07813,-0.539062 -0.03906,-0.378906 -0.02344,-0.457032 -0.0039,-0.316406 0.02344,-0.289062 0.03125,-0.347657 0.07422,-0.386718 0.15625,-0.574219 0.160156,-0.46875 0.125,-0.367188 0.105469,-0.253906 0.152344,-0.355469 0.222656,-0.398437 0.148437,-0.261719 0.300782,-0.453125 0.230468,-0.3125 0.390625,-0.46875 0.3125,-0.324219 0.410157,-0.398437 0.339843,-0.285156 0.332032,-0.261719 0.394531,-0.277344 0.296875,-0.191406 0.507812,-0.289063 0.4375,-0.214843 0.507813,-0.214844 0.523437,-0.199219 0.40625,-0.128906 0.683594,-0.191406 0.597656,-0.140625 0.765625,-0.144532 0.664063,-0.101562 0.6875,-0.06641 0.484375,-0.01953 0.632812,-0.01172 0.632813,0.02344 0.515625,0.04297 0.820312,0.109375 0.679688,0.113281 0.808594,0.183594 0.675781,0.1875 0.421875,0.140625 0.386719,0.140625 0.59375,0.257812 0.476562,0.226563 0.582031,0.328125 0.285157,0.179687 0.457031,0.320313 0.171875,0.136719 0.351562,0.296875 0.261719,0.242187 0.273438,0.273438 0.304687,0.332031 0.246094,0.296875 0.328125,0.453125 0.1875,0.285156 0.277344,0.464844 0.167968,0.335937 0.171875,0.351563 0.140625,0.3125 0.136719,0.339844 0.140625,0.398437 0.117188,0.394531 0.0625,0.207032 0.06641,0.253906 0.05469,0.207031 0.05469,0.261719 0.03906,0.257812 0.03516,0.257813 0.01953,0.34375 -0.0039,0.351562 -0.02344,0.308594 -0.02344,0.230469 -0.04687,0.414062 -0.03906,0.246094 -0.0625,0.351563 -0.08984,0.359375 -0.08984,0.324218 -0.08594,0.277344 -0.08594,0.246094 -0.113282,0.28125 -0.160156,0.367187 L 93,46.222656 l -0.136718,0.253906 -0.191407,0.316406 -0.207031,0.304688 -0.195312,0.265625 -0.214844,0.265625 -0.203125,0.230469 -0.214844,0.226562 -0.359375,0.355469 -0.382812,0.335937 -0.355469,0.28125 -0.4375,0.316407 -0.347656,0.230468 -0.320313,0.1875 -0.382812,0.222657 -0.222657,0.121093 -0.320312,0.167969 -0.367188,0.1875 -0.570312,0.28125 0.0039,0.316406 0.0039,2.039063 0.0078,1.390625 0.02344,1.285156 0.04297,1.082031 0.734375,0.0039 1.390625,-0.01563 2.265625,-0.0078 1.855469,-0.01563 1.859375,-0.0078 1.667969,-0.01172 1.296875,0 0.109375,-0.105469 0.21875,-0.164062 0.304687,-0.230469 0.289063,-0.203125 0.25,-0.171875 0.304689,-0.183594 0.44141,-0.253906 0.4375,-0.21875 0.33203,-0.152344 0.41015,-0.175781 0.41016,-0.136719 0.35937,-0.121094 0.39844,-0.109375 0.48828,-0.08984 0.44532,-0.07422 0.51953,-0.05469 0.35547,-0.01953 0.42187,0 0.42969,0.02344 0.39062,0.03906 0.48438,0.0625 0.55859,0.113281 0.73828,0.195313 0.5625,0.191406 0.53516,0.210938 0.37891,0.164062 0.22656,0.105469 0.30859,0.167969 0.28125,0.191406 0.22656,0.171875 0.3125,0.269531 0.29297,0.289063 0.39063,0.421875 0.28515,0.347656 0.19922,0.273437 0.21094,0.304688 0.23047,0.394531 0.13281,0.246094 0.15235,0.355469 0.1289,0.363281 0.0977,0.378906 0.043,0.28125 0.0234,0.226563 0.0195,0.308593 -0.0234,0.355469 -0.0234,0.214844 -0.0391,0.3125 -0.0586,0.261719 -0.0898,0.28125 -0.15625,0.433593 -0.15234,0.332032 -0.17188,0.304687 -0.18359,0.300781 -0.24219,0.355469 -0.29687,0.394531 -0.17188,0.222657 -0.24609,0.25 -0.29688,0.265625 -0.23437,0.171875 -0.32422,0.222656 -0.42578,0.25 -0.39063,0.191406 -0.4375,0.207031 -0.53515,0.21875 -0.44922,0.152344 -0.38672,0.113281 -0.38281,0.09766 -0.46485,0.105468 -0.41797,0.05469 -0.39062,0.03516 -0.35938,0.01563 -0.43359,0 -0.46094,-0.0078 -0.53906,-0.03906 -0.51172,-0.05469 -0.57031,-0.101563 -0.47656,-0.101562 -0.49219,-0.132813 -0.46485,-0.15625 -0.46093,-0.199219 -0.4336,-0.199218 -0.42968,-0.238282 -0.398443,-0.253906 -0.417969,-0.320312 -0.503906,-0.414063 -0.335938,-0.308594 -0.398437,0 -1.519531,0 -3.28125,-0.0078 -3.015625,0.0078 -2.097657,-0.0078 0.0078,0.425781 0.02344,1.707031 0.03125,2.476563 0,1.738281 0.02344,2.15625 0,1.410156 0.0078,1.195313 0.01172,1.816406 0.0078,1.5 -0.01172,1.574219 0.01953,1.628906 0.0039,1.789063 0.0078,2.152343 0.0039,2.113282 0.07813,1.402343 0.08203,1.582032 0.08984,1.78125 0.08984,1.632812 0.06641,1.28125 0.08594,1.605469 0.03906,0.792969 0.02734,0.507812 0.0625,1.234375 0.03125,0.562507 0.230469,0.88281 0.171875,0.55469 0.06641,0.21093 0.09375,0.29297 0.05469,0.12891 0.08984,0.21484 0.15625,0.3711 0.101563,0.21875 0.125,0.26562 0.152343,0.27735 0.214844,0.375 0.183594,0.28515 0.195312,0.28906 0.246094,0.32813 0.21875,0.25391 0.183594,0.21093 0.203125,0.20703 0.199219,0.19141 0.261718,0.24219 0.242188,0.20703 0.273437,0.20312 0.246094,0.16797 0.304688,0.19141 0.328125,0.17969 0.230468,0.11718 0.453125,0.1875 0.324219,0.11329 0.351563,0.11718 0.414062,0.10547 0.320313,0.082 0.375,0.0742 0.484375,0.0547 0.527343,0.043 0.496094,0.0156 0.609375,-0.004 0.535156,-0.0117 0.78125,-0.0586 0.777341,-0.0898 0.78516,-0.13672 0.77344,-0.15625 0.63281,-0.14844 0.69531,-0.19531 0.60157,-0.17969 0.55468,-0.16796 0.44532,-0.17188 0.42968,-0.19922 0.375,-0.22265 0.58985,-0.37891 0.70312,-0.46094 0.8125,-0.57812 0.52735,-0.40625 0.40234,-0.33985 0.38672,-0.33203 0.46484,-0.43359 0.42188,-0.41406 0.23437,-0.25391 0.3711,-0.41797 0.41796,-0.49609 0.41016,-0.5625 0.28906,-0.42578 0.23047,-0.41016 0.38672,-0.710942 -0.13672,-0.05469 -0.26562,-0.121094 -0.51563,-0.203125 -0.58594,-0.203125 -0.83984,-0.253906 -0.49609,-0.128906 -0.54297,-0.113282 -0.62891,-0.09766 -0.58984,-0.07422 -0.36719,-0.02734 -0.41797,-0.02344 -0.44922,0.0039 -0.23437,-0.01563 -0.0977,-0.01172 -0.0352,-0.01953 0.28125,-0.242187 0.74609,-0.546875 0.63281,-0.484375 0.51953,-0.421875 0.57032,-0.503906 0.47265,-0.433594 0.60547,-0.589844 0.32422,-0.320312 0.4375,-0.453125 0.27344,-0.289063 0.43359,-0.46875 0.28906,-0.347656 0.32032,-0.371094 0.30859,-0.367188 0.42187,-0.527343 0.36329,-0.476563 0.42187,-0.578125 0.30859,-0.429687 0.29297,-0.433594 0.2461,-0.367188 0.23437,-0.371093 0.23828,-0.375 0.25391,-0.410157 0.31641,-0.539062 0.23046,-0.390625 0.25391,-0.460938 0.18359,-0.332031 0.20704,-0.375 0.22265,-0.425781 0.29297,-0.578125 0.3125,-0.613281 0.32422,-0.664063 z"
     id="path3767"
     inkscape:connector-curvature="0" />
  
</svg>
