<?xml version="1.0" encoding="UTF-8" standalone="no"?>
<!-- Created with Inkscape (http://www.inkscape.org/) -->

<svg
   xmlns:dc="http://purl.org/dc/elements/1.1/"
   xmlns:cc="http://creativecommons.org/ns#"
   xmlns:rdf="http://www.w3.org/1999/02/22-rdf-syntax-ns#"
   xmlns:svg="http://www.w3.org/2000/svg"
   xmlns="http://www.w3.org/2000/svg"
   xmlns:sodipodi="http://sodipodi.sourceforge.net/DTD/sodipodi-0.dtd"
   xmlns:inkscape="http://www.inkscape.org/namespaces/inkscape"
   id="svg2"
   version="1.1"
   inkscape:version="0.48.5 r10040"
   width="48.75"
   height="31.875"
   viewBox="0 0 48.75 31.875"
   sodipodi:docname="art_antiaerea_autodefesa.svg">
  <metadata
     id="metadata8">
    <rdf:RDF>
      <cc:Work
         rdf:about="">
        <dc:format>image/svg+xml</dc:format>
        <dc:type
           rdf:resource="http://purl.org/dc/dcmitype/StillImage" />
        <dc:title />
      </cc:Work>
    </rdf:RDF>
  </metadata>
  <defs
     id="defs6" />
  <sodipodi:namedview
     pagecolor="#ffffff"
     bordercolor="#666666"
     borderopacity="1"
     objecttolerance="10"
     gridtolerance="10"
     guidetolerance="10"
     inkscape:pageopacity="0"
     inkscape:pageshadow="2"
     inkscape:window-width="1920"
     inkscape:window-height="997"
     id="namedview4"
     showgrid="false"
     inkscape:zoom="7.4039216"
     inkscape:cx="-24.543262"
     inkscape:cy="16.207627"
     inkscape:window-x="1366"
     inkscape:window-y="0"
     inkscape:window-maximized="1"
     inkscape:current-layer="svg2" />
  <path
     d=""
     id="path3076"
     inkscape:connector-curvature="0" />
  <path
     style="fill:#000000"
     d=""
     id="path3076-35"
     inkscape:connector-curvature="0" />
  <g
     id="g3870"
     transform="matrix(0.87010041,0,0,0.92843938,46.469078,0.51833846)">
    <path
       sodipodi:nodetypes="ccc"
       inkscape:connector-curvature="0"
       id="path2984"
       d="M -41.73464,30.929555 -25.527013,2.4311442 -9.7245761,30.659427"
       style="fill:none;
              stroke:param(outline) #ffffff;
              stroke-width:1.70000005;
              stroke-linecap:butt;
              stroke-linejoin:miter;
              stroke-miterlimit:4;
              stroke-opacity:1;
              stroke-dasharray:none" />
    <path
       d="m -46.9532,22.717353 c -2.47957,-2.047269 -2.47957,-4.947363 0,-6.994633 2.552501,-2.107486 6.078853,-2.022352 14.423996,0.348228 6.802718,1.932428 6.947104,1.931399 15.035675,-0.107072 9.0111312,-2.270975 13.7358582,-1.885366 14.9289702,1.21843 2.42097595,6.297928 -3.418718,8.340361 -14.9276352,5.220944 l -7.994068,-2.166739 -7.341149,2.041888 c -8.849037,2.461299 -11.573855,2.545972 -14.125789,0.438954 z m 11.813995,-1.618677 c 2.626939,-0.649831 4.776251,-1.49522 4.776251,-1.878639 0,-0.885249 -8.690431,-3.060152 -12.227688,-3.060152 -2.913713,0 -4.512474,2.167157 -3.386313,4.590228 0.852438,1.834124 4.374471,1.9474 10.83775,0.348563 z m 30.1028552,-1.86467 c 0,-1.666318 -0.792311,-2.662139 -2.310088,-2.903477 C -10.120281,15.88947 -20.4794,18.156853 -20.4794,19.205043 c 0,1.153582 7.622736,2.932722 11.7367212,2.73934 3.067764,-0.144203 3.706329,-0.611174 3.706329,-2.710377 z"
       id="path3338-6"
       inkscape:connector-curvature="0"
       style="stroke:none;
              fill:param(outline) #ffffff"
              />
  </g>
</svg>
