<?xml version="1.0" encoding="UTF-8" standalone="no"?>
<!-- Created with Inkscape (http://www.inkscape.org/) -->

<svg
   xmlns:dc="http://purl.org/dc/elements/1.1/"
   xmlns:cc="http://creativecommons.org/ns#"
   xmlns:rdf="http://www.w3.org/1999/02/22-rdf-syntax-ns#"
   xmlns:svg="http://www.w3.org/2000/svg"
   xmlns="http://www.w3.org/2000/svg"
   xmlns:sodipodi="http://sodipodi.sourceforge.net/DTD/sodipodi-0.dtd"
   xmlns:inkscape="http://www.inkscape.org/namespaces/inkscape"
   width="210mm"
   height="297mm"
   viewBox="0 0 210 297"
   version="1.1"
   id="svg8"
   inkscape:version="0.92.1 r15371"
   sodipodi:docname="baterias_canhoes.svg">
  <defs
     id="defs2" />
  <sodipodi:namedview
     id="base"
     pagecolor="#ffffff"
     bordercolor="#666666"
     borderopacity="1.0"
     inkscape:pageopacity="0.0"
     inkscape:pageshadow="2"
     inkscape:zoom="1.4"
     inkscape:cx="325.74639"
     inkscape:cy="575.98005"
     inkscape:document-units="mm"
     inkscape:current-layer="layer1"
     showgrid="false"
     inkscape:window-width="1366"
     inkscape:window-height="705"
     inkscape:window-x="-8"
     inkscape:window-y="-8"
     inkscape:window-maximized="1" />
  <metadata
     id="metadata5">
    <rdf:RDF>
      <cc:Work
         rdf:about="">
        <dc:format>image/svg+xml</dc:format>
        <dc:type
           rdf:resource="http://purl.org/dc/dcmitype/StillImage" />
        <dc:title></dc:title>
      </cc:Work>
    </rdf:RDF>
  </metadata>
  <g
     inkscape:label="Camada 1"
     inkscape:groupmode="layer"
     id="layer1">
    <path
       style="fill:none;stroke:#000000;stroke-width:0.26458332px;stroke-linecap:butt;stroke-linejoin:miter;stroke-opacity:1"
       d="m 54.617558,129.17857 0.377976,24.75744 99.974706,-0.37798 -0.37798,-24.75744 -9.63839,-0.18899 v 5.29167 l -4.53572,4.72471 -9.4494,0.18898 -5.48066,-5.29166 v -4.72471 h -10.96131 l -0.18898,5.29167 -4.34673,4.34673 h -9.63839 l -5.29167,-4.53572 -0.188987,-5.10268 H 84.477676 l 0.18899,5.29167 -4.535715,4.53572 -9.638393,0.18898 -5.669642,-5.29166 v -4.53572 z"
       id="path5320"
       inkscape:connector-curvature="0" />
    <path
       style="stroke:#000000;stroke-width:19.0731163;stroke-miterlimit:4;stroke-dasharray:none;stroke-opacity:1"
       d="m 208.4779,562.57974 c -0.23905,-10.3542 -0.6333,-31.06859 -0.87611,-46.03197 l -0.44147,-27.20615 11.97855,-0.47243 c 6.58819,-0.25983 14.98077,-0.47242 18.65017,-0.47242 h 6.67164 v 8.49473 8.49472 l 10.89246,10.13221 10.89247,10.13221 18.57182,-0.48685 18.57182,-0.48685 8.79179,-8.6758 8.79179,-8.67579 -0.49049,-9.82143 -0.4905,-9.82143 h 19.02014 19.02013 v 7.41071 c 0,11.54768 -0.4526,10.70175 10.93183,20.43241 l 10.04459,8.58545 h 18.6082 18.6082 l 8.40359,-8.38169 8.40359,-8.38169 v -4.36769 c 0,-2.40222 0.20787,-6.82689 0.46195,-9.83259 l 0.46195,-5.46491 h 19.8952 19.89518 v 8.86749 8.86749 l 10.53572,10.11353 10.53571,10.11353 18.21429,-0.49853 18.21428,-0.49854 8.71427,-9.0182 8.71425,-9.0182 0.0358,-9.82143 0.0357,-9.82143 h 5.60021 c 3.08011,0 10.91726,0.2097 17.41589,0.466 l 11.81569,0.466 0.45113,41.85543 c 0.24812,23.02049 0.61886,43.66386 0.82386,45.87415 l 0.37272,4.01872 -168.41832,0.44746 c -92.63008,0.24609 -177.30058,0.64143 -188.15667,0.87852 l -19.73836,0.43107 z"
       id="path5322"
       inkscape:connector-curvature="0"
       transform="scale(0.26458333)" />
  </g>
</svg>
