<?xml version="1.0" encoding="UTF-8" standalone="no"?>
<!-- Created with Inkscape (http://www.inkscape.org/) -->

<svg
   xmlns:dc="http://purl.org/dc/elements/1.1/"
   xmlns:cc="http://creativecommons.org/ns#"
   xmlns:rdf="http://www.w3.org/1999/02/22-rdf-syntax-ns#"
   xmlns:svg="http://www.w3.org/2000/svg"
   xmlns="http://www.w3.org/2000/svg"
   xmlns:sodipodi="http://sodipodi.sourceforge.net/DTD/sodipodi-0.dtd"
   xmlns:inkscape="http://www.inkscape.org/namespaces/inkscape"
   width="210mm"
   height="297mm"
   viewBox="0 0 210 297"
   version="1.1"
   id="svg8"
   sodipodi:docname="canhao_sem_recuo2.svg"
   inkscape:version="0.92.1 r15371">
  <defs
     id="defs2">
    <inkscape:perspective
       sodipodi:type="inkscape:persp3d"
       inkscape:vp_x="0 : 148.5 : 1"
       inkscape:vp_y="0 : 1000 : 0"
       inkscape:vp_z="210 : 148.5 : 1"
       inkscape:persp3d-origin="105 : 99 : 1"
       id="perspective17" />
  </defs>
  <sodipodi:namedview
     id="base"
     pagecolor="#ffffff"
     bordercolor="#666666"
     borderopacity="1.0"
     inkscape:pageopacity="0.0"
     inkscape:pageshadow="2"
     inkscape:zoom="0.175"
     inkscape:cx="-688.17658"
     inkscape:cy="1281.3803"
     inkscape:document-units="mm"
     inkscape:current-layer="layer1"
     showgrid="false"
     inkscape:measure-start="194.959,923.279"
     inkscape:measure-end="196.475,923.279"
     inkscape:window-width="1366"
     inkscape:window-height="705"
     inkscape:window-x="-8"
     inkscape:window-y="-8"
     inkscape:window-maximized="1" />
  <metadata
     id="metadata5">
    <rdf:RDF>
      <cc:Work
         rdf:about="">
        <dc:format>image/svg+xml</dc:format>
        <dc:type
           rdf:resource="http://purl.org/dc/dcmitype/StillImage" />
      </cc:Work>
    </rdf:RDF>
  </metadata>
  <g
     inkscape:label="Camada 1"
     inkscape:groupmode="layer"
     id="layer1">
    <path
       style="stroke-width:0.06313454"
       d=""
       id="path56"
       inkscape:connector-curvature="0"
       transform="scale(0.26458333)" />
    <path
       style="stroke-width:0.06313454"
       d=""
       id="path64"
       inkscape:connector-curvature="0"
       transform="scale(0.26458333)" />
    <path
       style="stroke-width:0.06313454"
       d=""
       id="path66"
       inkscape:connector-curvature="0"
       transform="scale(0.26458333)" />
    <g
       id="g38"
       transform="translate(9.0714286,113.39286)">
      <g
         id="g29">
        <rect
           id="rect10"
           width="151.19048"
           height="7.1815472"
           x="27.214285"
           y="24.479166"
           style="stroke-width:0.26458332" />
        <path
           style="stroke-width:0.09449405"
           d="m 178.35751,35.16882 c 0,-2.082589 -0.0333,-3.218376 -0.0945,-3.218376 -0.10393,0 -0.10792,-3.672978 -0.0108,-9.925054 l 0.058,-3.735695 7.45953,4.703479 c 4.10274,2.586914 7.49512,4.739081 7.53864,4.782595 0.0577,0.05775 -14.03319,10.072566 -14.83281,10.542071 -0.0935,0.05492 -0.11811,-0.600329 -0.11811,-3.14902 z"
           id="path54"
           inkscape:connector-curvature="0" />
        <path
           style="stroke-width:0.06313454"
           d="m 674.35666,117.52273 c 0.008,-1.17194 0.021,-1.76145 0.0299,-1.31004 0.025,1.27089 0.14169,3.10615 0.20862,3.28219 0.0543,0.14295 0.0449,0.15864 -0.096,0.15864 h -0.15628 z"
           id="path58"
           inkscape:connector-curvature="0"
           transform="scale(0.26458333)" />
        <path
           style="stroke-width:0.06313454"
           d="m 674.41106,116.20743 c 0.003,-0.0735 0.018,-0.0885 0.0381,-0.0382 0.0182,0.0456 0.016,0.10003 -0.005,0.12101 -0.021,0.021 -0.0359,-0.0163 -0.0332,-0.0829 z"
           id="path62"
           inkscape:connector-curvature="0"
           transform="scale(0.26458333)" />
      </g>
      <path
         inkscape:connector-curvature="0"
         id="path70"
         d="M 14.910842,19.427556 C 8.2151311,13.939401 2.7089495,9.380078 2.6748692,9.295726 2.640769,9.211376 3.3661244,8.464342 4.2867514,7.635656 l 1.6738627,-1.506702 2.774061,2.387 c 1.5257219,1.312849 6.3077979,5.441647 10.6268199,9.175106 l 7.85279,6.788106 0.0126,2.463426 c 0.007,1.354885 -0.0224,2.463427 -0.0647,2.463427 -0.0425,0 -5.555373,-4.490309 -12.251083,-9.978463 z"
         style="stroke-width:0.2299124" />
      <path
         inkscape:connector-curvature="0"
         id="path72"
         d="m 4.6298078,50.635882 c -0.462261,-1.365322 -0.66228,-2.307602 -0.539172,-2.540016 0.107641,-0.203208 5.3545,-5.600099 11.6596812,-11.993087 l 11.463968,-11.623613 0.06463,3.424717 c 0.05999,3.178959 0.03091,3.454015 -0.405339,3.832831 -0.258473,0.224462 -2.505831,2.407147 -4.994124,4.85042 -2.488295,2.443267 -7.222056,7.092127 -10.519465,10.330799 l -5.9952932,5.888489 z"
         style="stroke-width:0.25529486" />
    </g>
  </g>
</svg>
