<?xml version="1.0" encoding="UTF-8" standalone="no"?>
<!-- Creator: CorelDRAW -->

<svg
   xmlns:dc="http://purl.org/dc/elements/1.1/"
   xmlns:cc="http://creativecommons.org/ns#"
   xmlns:rdf="http://www.w3.org/1999/02/22-rdf-syntax-ns#"
   xmlns:svg="http://www.w3.org/2000/svg"
   xmlns="http://www.w3.org/2000/svg"
   xmlns:sodipodi="http://sodipodi.sourceforge.net/DTD/sodipodi-0.dtd"
   xmlns:inkscape="http://www.inkscape.org/namespaces/inkscape"
   xml:space="preserve"
   width="64"
   height="64"
   style="clip-rule:evenodd;fill-rule:evenodd;image-rendering:optimizeQuality;shape-rendering:geometricPrecision;text-rendering:geometricPrecision"
   viewBox="0 0 60 60"
   id="svg2"
   version="1.1"
   inkscape:version="0.92.1 r15371"
   sodipodi:docname="Cmdo_logistico_combinado_TO.svg"><metadata
     id="metadata20"><rdf:RDF><cc:Work
         rdf:about=""><dc:format>image/svg+xml</dc:format><dc:type
           rdf:resource="http://purl.org/dc/dcmitype/StillImage" /></cc:Work></rdf:RDF></metadata><sodipodi:namedview
     pagecolor="#ffffff"
     bordercolor="#666666"
     borderopacity="1"
     objecttolerance="10"
     gridtolerance="10"
     guidetolerance="10"
     inkscape:pageopacity="0"
     inkscape:pageshadow="2"
     inkscape:window-width="1600"
     inkscape:window-height="878"
     id="namedview18"
     showgrid="false"
     inkscape:zoom="3.9333333"
     inkscape:cx="23.516949"
     inkscape:cy="30"
     inkscape:window-x="1592"
     inkscape:window-y="-8"
     inkscape:window-maximized="1"
     inkscape:current-layer="svg2" /><defs
     id="defs4"><style
       type="text/css"
       id="style6">
    .str0 {stroke:#1F1A17;stroke-width:0.9}
    .fil0 {fill:none}
   </style></defs><path
     inkscape:connector-curvature="0"
     id="path10"
     d="m 34.742963,1.0098626 c 2.20866,0 3.99921,1.79409 3.99921,4.0063 0,2.2122 -1.79055,4.00512 -3.99921,4.00512 -2.20866,0 -4.00039,-1.79291 -4.00039,-4.00512 0,-2.2122 1.79173,-4.0063 4.00039,-4.0063 z"
     style="fill:none;fill-opacity:1;stroke:param(outline) #000000;stroke-opacity:1" /><path
     inkscape:connector-curvature="0"
     id="path12"
     d="m 24.744963,1.0098626 c 2.20866,0 3.99921,1.79409 3.99921,4.0063 0,2.2122 -1.79055,4.00512 -3.99921,4.00512 -2.20866,0 -4.00039,-1.79291 -4.00039,-4.00512 0,-2.2122 1.79173,-4.0063 4.00039,-4.0063 z"
     style="stroke:param(outline) #000000;stroke-opacity:1;fill:none" /><path
     inkscape:connector-curvature="0"
     id="path14"
     d="m 14.745763,1.0098626 c 2.20866,0 3.99921,1.79409 3.99921,4.0063 0,2.2122 -1.79055,4.00512 -3.99921,4.00512 -2.20866,0 -4.00039,-1.79291 -4.00039,-4.00512 0,-2.2122 1.79173,-4.0063 4.00039,-4.0063 z"
     style="fill:none;stroke:param(outline) #000000;stroke-opacity:1" /><path
     inkscape:connector-curvature="0"
     id="path16"
     d="m 44.743363,1.0098626 c 2.20866,0 3.99921,1.79409 3.99921,4.0063 0,2.2122 -1.79055,4.00512 -3.99921,4.00512 -2.20866,0 -4.00039,-1.79291 -4.00039,-4.00512 0,-2.2122 1.79173,-4.0063 4.00039,-4.0063 z"
     style="stroke:param(outline) #000000;stroke-opacity:1;fill:none" /></svg>