<?xml version="1.0" encoding="UTF-8" standalone="no"?>
<!-- Created with Inkscape (http://www.inkscape.org/) -->

<svg
   xmlns:dc="http://purl.org/dc/elements/1.1/"
   xmlns:cc="http://creativecommons.org/ns#"
   xmlns:rdf="http://www.w3.org/1999/02/22-rdf-syntax-ns#"
   xmlns:svg="http://www.w3.org/2000/svg"
   xmlns="http://www.w3.org/2000/svg"
   xmlns:sodipodi="http://sodipodi.sourceforge.net/DTD/sodipodi-0.dtd"
   xmlns:inkscape="http://www.inkscape.org/namespaces/inkscape"
   id="svg2"
   version="1.1"
   inkscape:version="0.48.5 r10040"
   width="57.1875"
   height="41.25"
   viewBox="0 0 57.1875 41.25"
   sodipodi:docname="descontaminacao2.svg">
  <metadata
     id="metadata8">
    <rdf:RDF>
      <cc:Work
         rdf:about="">
        <dc:format>image/svg+xml</dc:format>
        <dc:type
           rdf:resource="http://purl.org/dc/dcmitype/StillImage" />
        <dc:title></dc:title>
      </cc:Work>
    </rdf:RDF>
  </metadata>
  <defs
     id="defs6" />
  <sodipodi:namedview
     pagecolor="#ffffff"
     bordercolor="#666666"
     borderopacity="1"
     objecttolerance="10"
     gridtolerance="10"
     guidetolerance="10"
     inkscape:pageopacity="0"
     inkscape:pageshadow="2"
     inkscape:window-width="1920"
     inkscape:window-height="997"
     id="namedview4"
     showgrid="false"
     inkscape:zoom="8"
     inkscape:cx="29.90625"
     inkscape:cy="41.615035"
     inkscape:window-x="1366"
     inkscape:window-y="0"
     inkscape:window-maximized="1"
     inkscape:current-layer="svg2" />
  <g
     id="g3080">
    <text
       transform="scale(1.0213484,0.97909783)"
       sodipodi:linespacing="125%"
       id="text5496"
       y="40.460648"
       x="7.3522973"
       style="font-size:43.36079407px;font-style:normal;font-weight:normal;line-height:125%;letter-spacing:0px;word-spacing:0px;fill:param(outline) #ffffff;fill-opacity:1;stroke:none;font-family:Sans"
       xml:space="preserve"><tspan
         style="font-size:15.17627716px;font-style:normal;font-variant:normal;font-weight:normal;font-stretch:normal;font-family:Arial;-inkscape-font-specification:Arial"
         y="40.460648"
         x="7.3522973"
         id="tspan5498"
         sodipodi:role="line">Dctmc</tspan></text>
    <path
       style="fill:param(outline) #000000;stroke:param(outline) #000000;stroke-width:0.1;stroke-linecap:butt;stroke-linejoin:miter;stroke-miterlimit:4;stroke-opacity:1;stroke-dasharray:none"
       d="m 29.720703,11.660175 0.191406,-0.07031 0.160157,-0.01953 0.109375,0.0078 0.101562,0.0078 0.125,0.04687 0.09766,0.04297 0.203125,0.09766 0.269532,0.226563 0.26172,0.222656 0.22266,0.238281 0.45312,0.519532 0.4375,0.554687 0.4375,0.566406 0.375,0.511719 0.55469,0.753906 0.6289,0.886719 0.51954,0.746094 0.35546,0.515625 0.58594,0.832031 0.51953,0.75 0.57032,0.828125 0.40625,0.585938 0.62109,0.917968 0.49609,0.703125 0.5586,0.777344 0.67187,0.9375 0.71485,0.941406 0.68359,0.890625 0.58594,0.714844 0.63281,0.742188 0.64062,0.683592 0.27735,0.25 0.19139,0.0625 0.13281,0.01953 0.0781,0.01563 0.26953,-0.02734 0.26953,-0.06641 0.21875,-0.09375 0.16797,-0.101563 0.16016,-0.152344 0.082,-0.128906 0.0859,-0.1875 0.0508,-0.191406 0.0195,-0.1875 -0.008,-0.246094 -0.0312,-0.328125 -0.0586,-0.285156 -0.043,-0.152344 -0.0586,-0.21875 -0.0703,-0.222656 -0.0977,-0.253906 -0.0859,-0.234375 -0.0898,-0.207032 -0.10547,-0.25 -0.11719,-0.246093 -0.10547,-0.21875 L 43.9353,23.941406 43.6228,23.351562 42.90404,22.093748 42.05638,20.738279 41.34545,19.656248 40.61498,18.582029 40.08373,17.828123 39.36107,16.812498 39.0017,16.32031 38.67748,15.878904 38.25951,15.300779 37.86107,14.757811 37.02904,13.636717 36.52513,12.968748 35.95092,12.207029 35.48998,11.589842 34.72045,10.574217 33.99779,9.609373 33.32201,8.691404 l -0.19922,-0.25 0.81641,-0.316406 0.6289,-0.238282 0.54297,-0.203125 0.48828,-0.183593 0.64844,-0.25 0.625,-0.234375 0.31642,-0.101563 0.31641,-0.09375 0.33594,-0.08594 0.19921,-0.02344 0.17969,-0.01563 0.16016,0.03516 0.13281,0.08594 0.0859,0.105469 0.0664,0.121093 0.0469,0.171875 0.0391,0.335938 0.008,0.378906 0.004,0.527344 0.0195,0.308594 0.0547,0.402344 0.0664,0.296875 0.18359,0.511719 0.17969,0.386717 0.23828,0.429689 0.29297,0.40625 0.33594,0.425781 0.32031,0.34375 0.25391,0.25 0.34375,0.300781 0.40625,0.292969 0.35156,0.238281 0.5,0.296875 0.39453,0.195313 0.33203,0.136719 0.51172,0.179687 0.39454,0.101551 0.33594,0.06641 0.40234,0.05469 0.33594,0.01563 0.33985,0 0.40625,-0.01953 0.39062,-0.04687 0.48438,-0.07422 0.3789,-0.07813 0.25,-0.06641 0.28125,-0.09375 0.31641,-0.101561 0.25,-0.101564 0.33984,-0.152344 0.25391,-0.136717 0.44531,-0.261719 0.26172,-0.171875 0.21875,-0.15625 0.29687,-0.238281 0.25391,-0.230469 0.21094,-0.210938 0.23047,-0.261718 0.16797,-0.199219 0.16406,-0.230469 0.19531,-0.296875 0.15625,-0.269531 0.17578,-0.335938 0.12891,-0.28125 0.0898,-0.253906 0.0898,-0.285156 0.0586,-0.21875 0.0547,-0.273439 0.043,-0.273437 0.0234,-0.335938 0.008,-0.214844 -0.008,-0.304687 -0.0234,-0.242188 -0.043,-0.25 -0.0586,-0.296875 -0.082,-0.292968 -0.0859,-0.230469 -0.0937,-0.214844 -0.0977,-0.21875 -0.15235,-0.25 L 51.19731,5.68749 50.97075,5.398428 50.79106,5.179678 50.54497,4.917959 50.32231,4.714834 50.10747,4.53124 49.75981,4.277334 49.42778,4.082021 49.08403,3.902334 48.61918,3.707021 48.13481,3.546865 47.53325,3.382803 l -0.58203,-0.125 -0.51954,-0.09375 -0.38281,-0.0625 -0.46875,-0.05469 -0.71094,-0.07422 -0.57421,-0.04687 -0.63672,-0.01953 -0.48047,-0.01172 -0.83203,0.0039 -0.49219,0.01172 -0.57813,0.02734 -0.875,0.0625 -0.35937,0.03125 -0.47656,0.05078 -0.50391,0.05469 -0.70312,0.101563 -0.71875,0.117187 -0.38672,0.06641 -0.69141,0.144531 -0.51172,0.121094 -0.35156,0.09375 -0.73438,0.199218 -0.60546,0.191407 -0.3711,0.121093 -0.3789,0.140622 -0.42579,0.140625 -0.4414,0.140625 -0.52735,0.164062 -0.57812,0.15625 -0.41797,0.09375 -0.328124,0.05859 -0.214844,0.03125 -0.210938,0.01953 -0.238281,0.0039 -0.353978,-0.0014 -0.110486,0 -0.125379,-0.0064 -0.183594,-0.01953 -0.25,-0.03516 -0.21875,-0.03516 -0.25,-0.05859 L 28.498091,5.03514 28.294966,4.97655 28.080122,4.91014 27.63481,4.765609 27.380903,4.671859 27.064497,4.562484 26.775435,4.445296 26.517622,4.343734 26.201216,4.226546 25.923872,4.109359 25.57231,3.992171 25.240278,3.882796 24.79106,3.746077 l -0.925782,-0.25 -0.402343,-0.101562 -0.5,-0.109375 -1.042969,-0.160156 -0.40625,-0.06641 -0.390625,-0.04297 -0.558594,-0.06641 -0.519531,-0.04687 -0.589844,-0.03125 -0.4375,-0.02734 -0.464844,-0.01172 -0.652343,0 -0.746094,0.0078 -0.570313,0.03125 -0.695312,0.05469 -0.480469,0.05469 -0.5625,0.08203 -0.644531,0.113281 -0.421875,0.08984 -0.492188,0.125 -0.488281,0.144531 -0.351562,0.128906 -0.390626,0.15625 -0.457031,0.222656 -0.328125,0.1875 -0.308594,0.214844 -0.304687,0.261719 -0.261719,0.285156 -0.296875,0.359375 -0.21875,0.300781 -0.199219,0.3125 -0.25,0.460938 -0.210937,0.37891 -0.132813,0.316406 -0.171875,0.464844 -0.07031,0.261719 -0.05078,0.28125 -0.01953,0.191406 -0.0078,0.164063 0.01172,0.324218 0.04297,0.308594 0.07813,0.347657 0.109375,0.332031 0.132812,0.320312 0.183594,0.371094 0.175781,0.3125 0.21875,0.3125 0.167969,0.234375 0.261719,0.300781 0.222656,0.234375 0.238281,0.238282 0.289063,0.261718 0.230469,0.183594 0.257812,0.183594 0.230469,0.160156 0.355469,0.222656 0.335938,0.183594 0.3125,0.160156 0.269531,0.113282 0.351563,0.132812 0.367187,0.105469 0.390625,0.121094 0.378906,0.07422 0.332032,0.04687 0.347656,0.02734 0.414062,0.0078 0.363282,-0.02344 0.289062,-0.03516 0.339844,-0.05469 0.277344,-0.05859 0.191406,-0.05469 0.261719,-0.08594 0.316406,-0.09766 0.261719,-0.113281 0.246093,-0.105469 0.214844,-0.09766 0.152344,-0.08203 0.285156,-0.15625 0.253906,-0.15625 0.234375,-0.160156 0.21875,-0.152344 0.206992,-0.152344 0.199218,-0.167969 0.226563,-0.191406 0.246093,-0.246094 0.132813,-0.140625 0.191406,-0.207031 0.199219,-0.238281 0.140625,-0.1875 0.128906,-0.1875 0.207032,-0.328125 0.125,-0.230469 0.117187,-0.222656 0.09766,-0.230469 0.08594,-0.25 0.05469,-0.171875 0.05859,-0.246094 0.05469,-0.269531 0.02734,-0.230469 0.01172,-0.203125 0,-0.207031 0,-0.21875 0.0078,-0.21875 0.01563,-0.206995 0.01953,-0.21875 0.02734,-0.15625 0.03906,-0.15625 0.04687,-0.136719 0.0625,-0.117188 0.05078,-0.07422 0.04297,-0.03906 0.07422,-0.0625 0.101562,-0.03906 0.101563,-0.02734 0.09766,0 0.125,0 0.128906,0.02734 0.230469,0.05859 0.296875,0.109375 0.414063,0.183594 0.457031,0.21875 0.285156,0.15625 0.492188,0.253906 0.273437,0.15625 0.210938,0.128906 0.132812,0.101563 0.183594,0.15625 0.109375,0.136719 0.05469,0.117187 0.04297,0.152344 0.01172,0.109375 -0.0078,0.167969 -0.05469,0.210938 -0.07031,0.179687 -0.09766,0.210938 -0.121094,0.207031 -0.199218,0.34375 -0.207032,0.304687 -0.140625,0.214844 -0.273437,0.367188 -0.128906,0.199218 -0.148438,0.199219 -0.199219,0.257813 -0.199218,0.277343 -0.285157,0.371094 -0.222656,0.304688 -0.210937,0.285156 -0.210938,0.28125 -0.289062,0.394531 -0.386719,0.515625 -0.238281,0.328125 -0.164063,0.226563 -0.179687,0.226562 -0.367188,0.515625 -0.230469,0.316406 -0.257812,0.371094 -0.476563,0.664063 -0.320312,0.445312 -0.402344,0.570313 -0.246094,0.351562 -0.234375,0.339844 -0.296875,0.441406 -0.222656,0.332031 -0.289062,0.410157 -0.21875,0.335937 -0.289063,0.441406 -0.269531,0.394532 -0.179688,0.289062 -0.347656,0.539063 -0.355469,0.5625 -0.171875,0.285156 -0.199218,0.320312 -0.238282,0.394532 -0.4375,0.765625 -0.304687,0.585937 -0.375,0.734375 -0.183594,0.421875 -0.148437,0.394531 -0.08594,0.28125 -0.08984,0.429688 0,0.171875 0.02344,0.144531 0.03906,0.08594 0.121094,0.183593 0.15625,0.214844 0.128906,0.140625 0.171875,0.144531 0.125,0.07813 0.15625,0.0625 0.121094,0.02344 0.167969,0 0.160156,-0.02344 0.128906,-0.04297 0.195313,-0.08594 0.140625,-0.07422 0.109375,-0.08203 0.222656,-0.15625 0.167969,-0.144531 0.183594,-0.164063 0.214843,-0.214843 0.167969,-0.171875 0.152344,-0.167969 0.265625,-0.285156 0.191406,-0.234375 0.167969,-0.195313 0.367187,-0.453125 0.507813,-0.65625 0.261719,-0.332031 0.222656,-0.300781 0.292969,-0.40625 0.289062,-0.390625 0.238281,-0.320313 0.25,-0.347656 0.28125,-0.390625 0.261719,-0.363281 0.292969,-0.421875 0.3125,-0.433594 0.296875,-0.425781 0.289062,-0.410157 0.355469,-0.484375 0.34375,-0.480468 0.367188,-0.519532 0.351562,-0.480468 0.480469,-0.648438 0.460937,-0.621094 0.582032,-0.777343 0.601562,-0.78125 0.253906,-0.320313 0.234375,-0.316406 0.234375,-0.289063 0.183594,-0.238281 0.21875,-0.265625 0.175781,-0.214844 0.203125,-0.257812 0.273438,-0.3125 0.183594,-0.234375 0.191406,-0.210938 0.191406,-0.210937 0.1875,-0.203125 0.203125,-0.191406 0.148438,-0.121094 0.128906,-0.113281 0.144531,-0.105469 0.152344,-0.109375 0.140625,-0.09766 z"
       id="path3754"
       inkscape:connector-curvature="0"
       sodipodi:nodetypes="ccccccccccccccccccccccccccccccccccccccccccccccccccccccccccccccccccccccccccccccccccccccccccccccccccccccccccccccccccccccccccccccccccccccccccccccccccccccccccccccccccccccccccccccccccccccccccccccccccccccccccccccccccccccccccccccccccccccccccccccccccccccccccccccccccccccccccccccccccccccccccccccccccccccccccccccccccccccccccccccccccccccccccccccccccccccccccccccccccccccccccccccccccccccccccccccccccccccccccccccccccccccccccccccccccccccccccccccccccccccccccccccccccccccccccccccccccccc" />
  </g>
</svg>
