<?xml version="1.0" encoding="UTF-8" standalone="no"?>
<!-- Created with Inkscape (http://www.inkscape.org/) -->

<svg
   xmlns:dc="http://purl.org/dc/elements/1.1/"
   xmlns:cc="http://creativecommons.org/ns#"
   xmlns:rdf="http://www.w3.org/1999/02/22-rdf-syntax-ns#"
   xmlns:svg="http://www.w3.org/2000/svg"
   xmlns="http://www.w3.org/2000/svg"
   xmlns:sodipodi="http://sodipodi.sourceforge.net/DTD/sodipodi-0.dtd"
   xmlns:inkscape="http://www.inkscape.org/namespaces/inkscape"
   id="svg2"
   version="1.1"
   inkscape:version="0.48.5 r10040"
   width="54.375"
   height="32.8125"
   viewBox="0 0 54.375 32.8125"
   sodipodi:docname="dqbn2.svg">
  <metadata
     id="metadata8">
    <rdf:RDF>
      <cc:Work
         rdf:about="">
        <dc:format>image/svg+xml</dc:format>
        <dc:type
           rdf:resource="http://purl.org/dc/dcmitype/StillImage" />
        <dc:title></dc:title>
      </cc:Work>
    </rdf:RDF>
  </metadata>
  <defs
     id="defs6" />
  <sodipodi:namedview
     pagecolor="#ffffff"
     bordercolor="#666666"
     borderopacity="1"
     objecttolerance="10"
     gridtolerance="10"
     guidetolerance="10"
     inkscape:pageopacity="0"
     inkscape:pageshadow="2"
     inkscape:window-width="1920"
     inkscape:window-height="997"
     id="namedview4"
     showgrid="false"
     inkscape:zoom="16"
     inkscape:cx="24.251764"
     inkscape:cy="10.705738"
     inkscape:window-x="1366"
     inkscape:window-y="0"
     inkscape:window-maximized="1"
     inkscape:current-layer="svg2" />
  <path
     style="fill:param(outline) #000000;stroke:param(outline) #000000;stroke-width:0.10000000000000001;stroke-linecap:butt;stroke-linejoin:miter;stroke-opacity:1;stroke-miterlimit:4;stroke-dasharray:none"
     d="m 27.515621,12.660177 0.191406,-0.07031 0.160157,-0.01953 0.109375,0.0078 0.101562,0.0078 0.125,0.04687 0.09766,0.04297 0.203125,0.09766 L 28.773438,13 l 0.261718,0.222656 0.222657,0.238281 0.453125,0.519532 0.4375,0.554687 0.4375,0.566406 0.375,0.511719 0.554687,0.753906 0.628906,0.886719 L 32.664063,18 l 0.355468,0.515625 0.585938,0.832031 0.519531,0.75 0.570313,0.828125 0.40625,0.585938 0.621093,0.917968 0.496094,0.703125 0.558594,0.777344 0.671875,0.9375 0.714844,0.941406 0.683593,0.890625 0.585938,0.714844 0.632812,0.742188 0.640625,0.683593 0.277344,0.25 0.191392,0.0625 0.13281,0.01953 0.07813,0.01563 0.269531,-0.02734 0.269531,-0.06641 0.21875,-0.09375 0.167969,-0.101563 0.160156,-0.152344 0.08203,-0.128906 0.08594,-0.1875 0.05078,-0.191406 0.01953,-0.1875 -0.0078,-0.246094 -0.03125,-0.328125 -0.05859,-0.285156 -0.04297,-0.152344 -0.05859,-0.21875 -0.07031,-0.222656 -0.09766,-0.253906 -0.08594,-0.234375 -0.08984,-0.207032 -0.105469,-0.25 -0.117188,-0.246093 -0.105468,-0.21875 -0.109375,-0.226563 -0.3125,-0.589844 L 40.699219,23.09375 39.851562,21.738281 39.140625,20.65625 38.410156,19.582031 37.878906,18.828125 37.15625,17.8125 36.796875,17.320312 36.472656,16.878906 36.054687,16.300781 35.65625,15.757813 34.824219,14.636719 34.320312,13.96875 33.746094,13.207031 33.285156,12.589844 32.515625,11.574219 31.792969,10.609375 31.117187,9.6914063 30.917969,9.4414063 31.734375,9.125 32.363281,8.8867188 32.90625,8.6835938 33.394531,8.5 l 0.648438,-0.25 0.625,-0.234375 0.316421,-0.1015628 0.316406,-0.09375 0.335938,-0.085937 0.199218,-0.023437 0.179688,-0.015625 0.160156,0.035156 0.132813,0.085937 0.08594,0.1054688 0.06641,0.1210938 0.04687,0.171875 0.03906,0.3359375 0.0078,0.3789062 0.0039,0.5273438 0.01953,0.3085937 0.05469,0.402344 0.06641,0.296875 0.183593,0.511719 0.179688,0.386718 0.238281,0.429688 0.292969,0.40625 0.335937,0.425781 0.320313,0.34375 0.253906,0.25 0.34375,0.300781 0.40625,0.292969 0.351563,0.238281 0.5,0.296875 0.394531,0.195313 0.332031,0.136719 0.511719,0.179687 0.394541,0.101551 0.335938,0.06641 0.402343,0.05469 0.335938,0.01563 0.339844,0 0.40625,-0.01953 0.390625,-0.04687 0.484375,-0.07422 0.378906,-0.07813 0.25,-0.06641 0.28125,-0.09375 0.316406,-0.101562 0.25,-0.101563 0.339844,-0.152344 0.253906,-0.136718 0.445313,-0.261719 0.261718,-0.171875 0.21875,-0.15625 0.296875,-0.238281 0.253907,-0.230469 0.210937,-0.210938 0.230469,-0.261718 0.167969,-0.199219 0.164062,-0.230469 0.195313,-0.296875 0.15625,-0.269531 0.175781,-0.335938 0.128906,-0.28125 0.08984,-0.253906 0.08984,-0.285156 0.05859,-0.21875 0.05469,-0.273438 0.04297,-0.2734377 0.02344,-0.3359375 0.0078,-0.2148438 -0.0078,-0.3046875 -0.02344,-0.2421875 -0.04297,-0.25 -0.05859,-0.296875 -0.08203,-0.2929688 -0.08594,-0.2304687 -0.09375,-0.2148438 -0.09766,-0.21875 -0.152344,-0.25 L 48.992187,6.6874955 48.765625,6.398433 48.585937,6.179683 48.339844,5.9179642 48.117187,5.7148392 47.902344,5.5312455 47.554687,5.2773392 47.222656,5.0820267 46.878906,4.9023392 46.414062,4.7070267 45.929687,4.5468705 45.328125,4.382808 44.746094,4.257808 44.226562,4.164058 43.84375,4.101558 43.375,4.046871 42.664062,3.972652 42.089844,3.925777 41.453125,3.906246 40.972656,3.894527 40.140625,3.898437 39.648437,3.910156 39.070312,3.9375 38.195312,4 37.835937,4.03125 37.359375,4.0820312 36.855469,4.1367187 36.152344,4.2382812 35.433594,4.3554687 35.046875,4.421875 34.355469,4.5664062 33.84375,4.6875 33.492187,4.78125 32.757812,4.9804687 32.152344,5.171875 31.78125,5.2929687 31.402344,5.43359 30.976562,5.574215 30.535156,5.71484 l -0.527344,0.1640625 -0.578125,0.15625 -0.417968,0.09375 -0.328125,0.058594 -0.214844,0.03125 -0.210938,0.019531 -0.238281,0.00391 -0.353978,-0.00143 -0.110486,0 -0.125379,-0.00638 -0.183594,-0.019531 -0.25,-0.035156 -0.21875,-0.035156 -0.25,-0.058594 L 26.292969,6.0351562 26.089844,5.9765625 25.875,5.9101562 25.429688,5.765625 25.175781,5.671875 24.859375,5.5625 24.570313,5.4453125 24.3125,5.34375 23.996094,5.2265625 23.71875,5.109375 23.367188,4.9921875 23.035156,4.8828125 22.585938,4.7460937 l -0.925782,-0.25 -0.402343,-0.1015625 -0.5,-0.109375 L 19.714844,4.125 19.308594,4.0585937 18.917969,4.015625 18.359375,3.9492187 17.839844,3.9023437 17.25,3.8710937 16.8125,3.84375 16.347656,3.832031 l -0.652343,0 -0.746094,0.00781 -0.570313,0.03125 -0.695312,0.054687 -0.480469,0.054687 -0.5625,0.082031 -0.644531,0.1132812 -0.421875,0.089844 -0.492188,0.125 -0.488281,0.1445312 -0.351562,0.1289063 -0.3906255,0.15625 -0.4570312,0.2226562 -0.328125,0.1875 -0.3085938,0.2148438 -0.3046875,0.2617187 -0.2617187,0.2851563 -0.296875,0.359375 -0.21875,0.3007812 -0.1992188,0.3125 -0.25,0.4609375 L 7.015625,7.8046875 6.8828125,8.1210937 6.7109375,8.5859375 6.640625,8.8476562 6.5898438,9.1289062 6.5703125,9.3203125 6.5625,9.484375 l 0.011719,0.3242187 0.042969,0.3085933 0.078125,0.347657 0.109375,0.332031 0.1328125,0.320312 0.1835938,0.371094 0.1757812,0.3125 0.21875,0.3125 0.1679688,0.234375 0.2617187,0.300781 0.2226563,0.234375 0.2382812,0.238282 0.2890625,0.261718 0.2304688,0.183594 0.2578125,0.183594 0.2304687,0.160156 0.3554688,0.222656 0.3359382,0.183594 0.3125,0.160156 0.269531,0.113282 0.351563,0.132812 0.367187,0.105469 0.390625,0.121094 0.378906,0.07422 0.332032,0.04687 0.347656,0.02734 0.414062,0.0078 0.363282,-0.02344 0.289062,-0.03516 0.339844,-0.05469 0.277344,-0.05859 0.191406,-0.05469 0.261719,-0.08594 0.316406,-0.09766 0.261719,-0.113281 0.246093,-0.105469 0.214844,-0.09766 0.152344,-0.08203 0.285156,-0.15625 0.253906,-0.15625 0.234375,-0.160156 0.21875,-0.152344 0.207032,-0.152344 0.199218,-0.167969 0.226563,-0.191406 0.246093,-0.246094 0.132813,-0.140625 0.191406,-0.207031 0.199219,-0.238281 0.140625,-0.1875 0.128906,-0.1875 0.207032,-0.328125 0.125,-0.230469 0.117187,-0.222656 0.09766,-0.230469 0.08594,-0.25 0.05469,-0.171875 0.05859,-0.246094 0.05469,-0.269531 0.02734,-0.2304685 0.01172,-0.203125 0,-0.2070313 0,-0.21875 0.0078,-0.21875 L 19.710938,8.71875 19.730469,8.5 19.757813,8.34375 19.796875,8.1875 19.84375,8.0507812 19.90625,7.9335937 19.957031,7.859375 20,7.8203125 l 0.07422,-0.0625 0.101562,-0.039063 0.101563,-0.027344 0.09766,0 0.125,0 0.128906,0.027344 0.230469,0.058594 0.296875,0.109375 0.414063,0.1835938 0.457031,0.21875 0.285156,0.15625 0.492188,0.2539062 0.273437,0.15625 0.210938,0.1289063 0.132812,0.1015625 0.183594,0.15625 0.109375,0.1367187 0.05469,0.1171875 0.04297,0.1523438 0.01172,0.109375 -0.0078,0.1679687 -0.05469,0.210938 -0.07031,0.179687 -0.09766,0.210938 -0.121094,0.207031 -0.199218,0.34375 -0.207032,0.304687 -0.140625,0.214844 -0.273437,0.367188 -0.128906,0.199218 -0.148438,0.199219 -0.199219,0.257813 -0.199218,0.277343 -0.285157,0.371094 -0.222656,0.304688 -0.210937,0.285156 -0.210938,0.28125 -0.289062,0.394531 -0.386719,0.515625 -0.238281,0.328125 -0.164063,0.226563 -0.179687,0.226562 -0.367188,0.515625 -0.230469,0.316406 -0.257812,0.371094 -0.476563,0.664063 -0.320312,0.445312 -0.402344,0.570313 -0.246094,0.351562 -0.234375,0.339844 -0.296875,0.441406 -0.222656,0.332031 -0.289062,0.410157 -0.21875,0.335937 -0.289063,0.441406 -0.269531,0.394532 -0.179688,0.289062 -0.347656,0.539063 -0.355469,0.5625 -0.171875,0.285156 -0.199218,0.320312 -0.238282,0.394532 -0.4375,0.765625 -0.304687,0.585937 -0.375,0.734375 -0.183594,0.421875 -0.148437,0.394531 -0.08594,0.28125 -0.08984,0.429688 0,0.171875 0.02344,0.144531 0.03906,0.08594 0.121094,0.183593 0.15625,0.214844 0.128906,0.140625 0.171875,0.144531 0.125,0.07813 0.15625,0.0625 0.121094,0.02344 0.167969,0 0.160156,-0.02344 0.128906,-0.04297 0.195313,-0.08594 0.140625,-0.07422 0.109375,-0.08203 0.222656,-0.15625 0.167969,-0.144531 0.183594,-0.164063 0.214843,-0.214843 0.167969,-0.171875 0.152344,-0.167969 0.265625,-0.285156 0.191406,-0.234375 0.167969,-0.195313 0.367187,-0.453125 0.507813,-0.65625 0.261719,-0.332031 0.222656,-0.300781 0.292969,-0.40625 0.289062,-0.390625 0.238281,-0.320313 0.25,-0.347656 0.28125,-0.390625 0.261719,-0.363281 0.292969,-0.421875 0.3125,-0.433594 0.296875,-0.425781 0.289062,-0.410157 0.355469,-0.484375 0.34375,-0.480468 0.367188,-0.519532 0.351562,-0.480468 0.480469,-0.648438 0.460937,-0.621094 0.582032,-0.777343 0.601562,-0.78125 0.253906,-0.320313 0.234375,-0.316406 0.234375,-0.289063 0.183594,-0.238281 0.21875,-0.265625 0.175781,-0.214844 0.203125,-0.257812 0.273438,-0.3125 0.183594,-0.234375 0.191406,-0.210938 0.191406,-0.210937 0.1875,-0.203125 0.203125,-0.191406 0.148438,-0.121094 0.128906,-0.113281 0.144531,-0.105469 0.152344,-0.109375 0.140625,-0.09766 z"
     id="path3754"
     inkscape:connector-curvature="0"
     sodipodi:nodetypes="ccccccccccccccccccccccccccccccccccccccccccccccccccccccccccccccccccccccccccccccccccccccccccccccccccccccccccccccccccccccccccccccccccccccccccccccccccccccccccccccccccccccccccccccccccccccccccccccccccccccccccccccccccccccccccccccccccccccccccccccccccccccccccccccccccccccccccccccccccccccccccccccccccccccccccccccccccccccccccccccccccccccccccccccccccccccccccccccccccccccccccccccccccccccccccccccccccccccccccccccccccccccccccccccccccccccccccccccccccccccccccccccccccccccccccccccccccccc" />
</svg>
