<?xml version="1.0" encoding="UTF-8" standalone="no"?>
<!-- Created with Inkscape (http://www.inkscape.org/) -->

<svg
   xmlns:dc="http://purl.org/dc/elements/1.1/"
   xmlns:cc="http://creativecommons.org/ns#"
   xmlns:rdf="http://www.w3.org/1999/02/22-rdf-syntax-ns#"
   xmlns:svg="http://www.w3.org/2000/svg"
   xmlns="http://www.w3.org/2000/svg"
   xmlns:sodipodi="http://sodipodi.sourceforge.net/DTD/sodipodi-0.dtd"
   xmlns:inkscape="http://www.inkscape.org/namespaces/inkscape"
   width="210mm"
   height="297mm"
   viewBox="0 0 210 297"
   version="1.1"
   id="svg8"
   inkscape:version="0.92.1 r15371"
   sodipodi:docname="explisoes_nucleares.svg">
  <defs
     id="defs2" />
  <sodipodi:namedview
     id="base"
     pagecolor="#ffffff"
     bordercolor="#666666"
     borderopacity="1.0"
     inkscape:pageopacity="0.0"
     inkscape:pageshadow="2"
     inkscape:zoom="0.35"
     inkscape:cx="-64.285714"
     inkscape:cy="560"
     inkscape:document-units="mm"
     inkscape:current-layer="layer1"
     showgrid="false"
     inkscape:window-width="1366"
     inkscape:window-height="705"
     inkscape:window-x="-8"
     inkscape:window-y="-8"
     inkscape:window-maximized="1" />
  <metadata
     id="metadata5">
    <rdf:RDF>
      <cc:Work
         rdf:about="">
        <dc:format>image/svg+xml</dc:format>
        <dc:type
           rdf:resource="http://purl.org/dc/dcmitype/StillImage" />
        <dc:title></dc:title>
      </cc:Work>
    </rdf:RDF>
  </metadata>
  <g
     inkscape:label="Camada 1"
     inkscape:groupmode="layer"
     id="layer1">
    <path
       style="fill:none;stroke:#000000;stroke-width:7.065;stroke-linecap:butt;stroke-linejoin:miter;stroke-opacity:1;stroke-miterlimit:4;stroke-dasharray:none"
       d="m 57.452381,216.86904 30.238094,-0.75595 21.166665,6.80358 16.63095,1.5119 12.09524,-6.04762 9.07143,-4.53571 h 3.02381"
       id="path4763"
       inkscape:connector-curvature="0" />
    <path
       style="fill:none;stroke:#000000;stroke-width:0.26458332px;stroke-linecap:butt;stroke-linejoin:miter;stroke-opacity:1"
       d="m 125.48809,224.42857 v 0 0"
       id="path4765"
       inkscape:connector-curvature="0" />
    <path
       style="fill:none;stroke:#000000;stroke-width:7.065;stroke-linecap:butt;stroke-linejoin:miter;stroke-opacity:1;stroke-miterlimit:4;stroke-dasharray:none"
       d="M 125.48809,224.42857 127,207.79762 l -4.53572,-14.3631 -5.29166,-12.85119 -2.26786,-14.36309 -1.5119,-12.85119 2.26785,-3.77977 3.77976,-0.75595 9.07143,3.77976 9.07143,3.77976 10.58333,1.51191 8.31548,-3.02381 12.09524,-8.31547 6.80357,-6.80358 6.04762,-7.55952 6.04762,-9.07143 2.26786,-10.58333 L 190.5,99.696427 187.47619,90.625 183.69643,80.041667 174.625,72.482143 l -17.38691,-9.827382 -20.41071,-6.047618 -12.85119,-3.023809 -19.65476,-3.023812 -13.607146,1.511906 -17.386903,3.779761 -18.142858,7.559524 -9.827381,9.827381 -6.047618,16.630952 -1.511906,15.875004 0.755954,15.875 5.291667,9.82738 9.071427,9.07142 12.851191,3.02382 17.386903,3.02381 h 8.315478 l 3.023809,3.0238 2.267858,7.55953 -4.535715,14.36309 -3.779764,15.11905 -4.535712,13.60714 3.779761,15.875 v 0 0"
       id="path4767"
       inkscape:connector-curvature="0" />
  </g>
</svg>
