<?xml version="1.0" encoding="UTF-8" standalone="no"?>
<!-- Created with Inkscape (http://www.inkscape.org/) -->

<svg
   xmlns:dc="http://purl.org/dc/elements/1.1/"
   xmlns:cc="http://creativecommons.org/ns#"
   xmlns:rdf="http://www.w3.org/1999/02/22-rdf-syntax-ns#"
   xmlns:svg="http://www.w3.org/2000/svg"
   xmlns="http://www.w3.org/2000/svg"
   xmlns:sodipodi="http://sodipodi.sourceforge.net/DTD/sodipodi-0.dtd"
   xmlns:inkscape="http://www.inkscape.org/namespaces/inkscape"
   id="svg2"
   version="1.1"
   inkscape:version="0.48.5 r10040"
   width="30.9375"
   height="25.3125"
   viewBox="0 0 30.9375 25.3125"
   sodipodi:docname="FT_SU.svg">
  <metadata
     id="metadata8">
    <rdf:RDF>
      <cc:Work
         rdf:about="">
        <dc:format>image/svg+xml</dc:format>
        <dc:type
           rdf:resource="http://purl.org/dc/dcmitype/StillImage" />
        <dc:title></dc:title>
      </cc:Work>
    </rdf:RDF>
  </metadata>
 
  <sodipodi:namedview
     pagecolor="#ffffff"
     bordercolor="#666666"
     borderopacity="1"
     objecttolerance="10"
     gridtolerance="10"
     guidetolerance="10"
     inkscape:pageopacity="0"
     inkscape:pageshadow="2"
     inkscape:window-width="1920"
     inkscape:window-height="997"
     id="namedview4"
     showgrid="false"
     inkscape:zoom="26.370718"
     inkscape:cx="-45.651439"
     inkscape:cy="17.365958"
     inkscape:window-x="1366"
     inkscape:window-y="0"
     inkscape:window-maximized="1"
     inkscape:current-layer="svg2" />
  <path
     style="stroke:param(outline) #ffffff; fill:param(outline) #ffffff"
     d="m 5.625,12.65625 0,-8.90625 9.84375,0 9.84375,0 0,8.90625 c 0,8.28125 -0.131579,8.90625 -1.875,8.90625 -1.71875,0 -1.875,-0.625 -1.875,-7.5 l 0,-7.5 -6.5625,0 -6.5625,0 0,7.5 c 0,6.041666 -0.2734375,7.5 -1.40625,7.5 -1.1513158,0 -1.40625,-1.614583 -1.40625,-8.90625 z M 13.125,15 c 0,-5.9375 0.178571,-6.5625 1.875,-6.5625 1.696429,0 1.875,0.625 1.875,6.5625 0,5.9375 -0.178571,6.5625 -1.875,6.5625 -1.696429,0 -1.875,-0.625 -1.875,-6.5625 z"
     id="path3338"
     inkscape:connector-curvature="0" />
  <g
     id="g8073">
    <path
       inkscape:connector-curvature="0"
       id="path7253"
       d="M -48.49486,20.989823 -48.43738,3.4966345"
       style="stroke:param(outline) #ffffff; fill:param(outline) #ffffff" />
    <path
       inkscape:connector-curvature="0"
       id="path7255"
       d="M -49.944266,3.2595287 -30.010104,3.158521"
       style="stroke:param(outline) #ffffff; fill:param(outline) #ffffff" />
    <path
       inkscape:connector-curvature="0"
       id="path7257"
       d="m -31.518089,2.6142764 0,18.3834196"
       style="stroke:param(outline) #ffffff; fill:param(outline) #ffffff" />
    <text
       xml:space="preserve"
       style="stroke:param(outline) #ffffff; fill:param(outline) #ffffff"
       x="-33.13327"
       y="26.932911"
       id="text7384"
       sodipodi:linespacing="125%"
       transform="scale(1.3445637,0.74373569)"><tspan
         sodipodi:role="line"
         id="tspan7386"
         x="-33.13327"
         y="26.932911"
         style="font-style:normal;font-variant:normal;font-weight:normal;font-stretch:normal;font-family:Arial;-inkscape-font-specification:Arial">I</tspan></text>
  </g>
</svg>
