<?xml version="1.0" encoding="UTF-8" standalone="no"?>
<!-- Creator: CorelDRAW -->

<svg
   xmlns:dc="http://purl.org/dc/elements/1.1/"
   xmlns:cc="http://creativecommons.org/ns#"
   xmlns:rdf="http://www.w3.org/1999/02/22-rdf-syntax-ns#"
   xmlns:svg="http://www.w3.org/2000/svg"
   xmlns="http://www.w3.org/2000/svg"
   xmlns:sodipodi="http://sodipodi.sourceforge.net/DTD/sodipodi-0.dtd"
   xmlns:inkscape="http://www.inkscape.org/namespaces/inkscape"
   xml:space="preserve"
   width="60px"
   height="60px"
   style="shape-rendering:geometricPrecision; text-rendering:geometricPrecision; image-rendering:optimizeQuality; fill-rule:evenodd; clip-rule:evenodd"
   viewBox="0 0 60 60"
   id="svg2"
   version="1.1"
   inkscape:version="0.48.5 r10040"
   sodipodi:docname="guerrilha.svg"><metadata
     id="metadata12"><rdf:RDF><cc:Work
         rdf:about=""><dc:format>image/svg+xml</dc:format><dc:type
           rdf:resource="http://purl.org/dc/dcmitype/StillImage" /></cc:Work></rdf:RDF></metadata><defs
     id="defs10" /><sodipodi:namedview
     pagecolor="#ffffff"
     bordercolor="#666666"
     borderopacity="1"
     objecttolerance="10"
     gridtolerance="10"
     guidetolerance="10"
     inkscape:pageopacity="0"
     inkscape:pageshadow="2"
     inkscape:window-width="1920"
     inkscape:window-height="997"
     id="namedview8"
     showgrid="false"
     inkscape:zoom="3.9333333"
     inkscape:cx="30.508475"
     inkscape:cy="30"
     inkscape:window-x="1366"
     inkscape:window-y="0"
     inkscape:window-maximized="1"
     inkscape:current-layer="svg2" /><g
     id="Camada_x0020_1"
     style="stroke:param(outline) #ffffff; fill:param(outline) #ffffff"
     transform="matrix(2.2311958,0,0,1.8303145,-37.700013,-26.306253)"><metadata
       id="CorelCorpID_0Corel-Layer" /><path
       class="fil0 str0"
       d="m 29.974,22.4988 c 1.16339,0 2.10709,0.94252 2.10709,2.10709 0,1.16339 -0.943701,2.10591 -2.10709,2.10591 -1.16339,0 -2.10709,-0.94252 -2.10709,-2.10591 0,-1.16457 0.943701,-2.10709 2.10709,-2.10709 z m 0,4.21299 c 0,8.69646 0,8.69646 0,8.69646 m -3.2752,-7.18228 6.60472,0 m -5.45079,9.27165 2.10709,-2.10709 m 2.16142,2.10709 -2.10709,-2.10709 m 2.20394,-8.56535 c 0,2.85709 0,2.85709 0,2.85709"
       style="stroke:param(outline) #ffffff"
       id="path6"
       inkscape:connector-curvature="0" /></g></svg>
