<?xml version="1.0" encoding="UTF-8" standalone="no"?>
<!-- Creator: CorelDRAW -->

<svg
   xmlns:dc="http://purl.org/dc/elements/1.1/"
   xmlns:cc="http://creativecommons.org/ns#"
   xmlns:rdf="http://www.w3.org/1999/02/22-rdf-syntax-ns#"
   xmlns:svg="http://www.w3.org/2000/svg"
   xmlns="http://www.w3.org/2000/svg"
   xmlns:sodipodi="http://sodipodi.sourceforge.net/DTD/sodipodi-0.dtd"
   xmlns:inkscape="http://www.inkscape.org/namespaces/inkscape"
   xml:space="preserve"
   width="60px"
   height="60px"
   style="shape-rendering:geometricPrecision; text-rendering:geometricPrecision; image-rendering:optimizeQuality; fill-rule:evenodd; clip-rule:evenodd"
   viewBox="0 0 60 60"
   id="svg2"
   version="1.1"
   inkscape:version="0.48.5 r10040"
   sodipodi:docname="inf_aeronautica.svg"><defs
     id="defs8" /><metadata
     id="metadata16"><rdf:RDF><cc:Work
         rdf:about=""><dc:format>image/svg+xml</dc:format><dc:type
           rdf:resource="http://purl.org/dc/dcmitype/StillImage" /><dc:title /></cc:Work></rdf:RDF></metadata><sodipodi:namedview
     pagecolor="#ffffff"
     bordercolor="#666666"
     borderopacity="1"
     objecttolerance="10"
     gridtolerance="10"
     guidetolerance="10"
     inkscape:pageopacity="0"
     inkscape:pageshadow="2"
     inkscape:window-width="1920"
     inkscape:window-height="997"
     id="namedview14"
     showgrid="false"
     inkscape:zoom="7.8666667"
     inkscape:cx="48.962033"
     inkscape:cy="24.152543"
     inkscape:window-x="1366"
     inkscape:window-y="0"
     inkscape:window-maximized="1"
     inkscape:current-layer="svg2" />
     <line
     style="stroke:param(outline) #ffffff; fill:param(outline) #ffffff"
     id="line10"
     y2="52.241829"
     x2="59.875969"
     y1="7.767529"
     x1="0.26212367"
     class="fil0 str0" />
     <line
     style="stroke:param(outline) #ffffff; fill:param(outline) #ffffff"
     id="line12"
     y2="52.305908"
     x2="0.22989474"
     y1="7.6247911"
     x1="59.877129"
     class="fil0 str0" /><path
     style="fill:param(outline) #ffffff"
     inkscape:connector-curvature="0"
     id="path3338"
     d="m 3.5591434,36.485129 c -3.04446776,-3.568035 -3.04446776,-8.622395 0,-12.190433 3.1340153,-3.672982 7.4637446,-3.524608 17.7100876,0.606901 8.352521,3.367887 8.529802,3.366095 18.46112,-0.186607 11.064058,-3.957916 16.865177,-3.285867 18.330105,2.123513 2.972525,10.976196 -4.197574,14.535803 -18.328465,9.0992 l -9.815287,-3.776252 -9.013618,3.558658 C 10.038052,40.009726 6.6924623,40.157297 3.5591434,36.485129 z M 18.064616,33.664056 c 3.225412,-1.132543 5.864383,-2.605909 5.864383,-3.274142 0,-1.542836 -10.670295,-5.333314 -15.0134138,-5.333314 -3.5775183,0 -5.5405113,3.776978 -4.1577869,7.999971 1.0466406,3.196561 5.3710687,3.39398 13.3068177,0.607485 z M 55.025539,30.41426 c 0,-2.904103 -0.972816,-4.639647 -2.836374,-5.060257 -3.405784,-0.768689 -16.124928,3.182966 -16.124928,5.009779 0,2.010494 9.359355,5.111226 14.410593,4.774194 3.766666,-0.251321 4.550709,-1.065169 4.550709,-4.723716 z" /></svg>
