<?xml version="1.0" encoding="UTF-8" standalone="no"?>
<!-- Creator: CorelDRAW -->

<svg
   xmlns:dc="http://purl.org/dc/elements/1.1/"
   xmlns:cc="http://creativecommons.org/ns#"
   xmlns:rdf="http://www.w3.org/1999/02/22-rdf-syntax-ns#"
   xmlns:svg="http://www.w3.org/2000/svg"
   xmlns="http://www.w3.org/2000/svg"
   xmlns:sodipodi="http://sodipodi.sourceforge.net/DTD/sodipodi-0.dtd"
   xmlns:inkscape="http://www.inkscape.org/namespaces/inkscape"
   xml:space="preserve"
   width="60px"
   height="60px"
   style="shape-rendering:geometricPrecision; text-rendering:geometricPrecision; image-rendering:optimizeQuality; fill-rule:evenodd; clip-rule:evenodd"
   viewBox="0 0 60 60"
   id="svg2"
   version="1.1"
   inkscape:version="0.48.5 r10040"
   sodipodi:docname="inf_bld.svg"><metadata
     id="metadata16"><rdf:RDF><cc:Work
         rdf:about=""><dc:format>image/svg+xml</dc:format><dc:type
           rdf:resource="http://purl.org/dc/dcmitype/StillImage" /><dc:title></dc:title></cc:Work></rdf:RDF></metadata><sodipodi:namedview
     pagecolor="#ffffff"
     bordercolor="#666666"
     borderopacity="1"
     objecttolerance="10"
     gridtolerance="10"
     guidetolerance="10"
     inkscape:pageopacity="0"
     inkscape:pageshadow="2"
     inkscape:window-width="1366"
     inkscape:window-height="735"
     id="namedview14"
     showgrid="false"
     inkscape:zoom="7.8666667"
     inkscape:cx="48.707796"
     inkscape:cy="24.152543"
     inkscape:window-x="0"
     inkscape:window-y="312"
     inkscape:window-maximized="1"
     inkscape:current-layer="svg2" />
     <line
     style="stroke:param(outline) #ffffff; fill:param(outline) #ffffff"
     id="line10"
     y2="52.241829"
     x2="59.875969"
     y1="7.767529"
     x1="0.26212367"
     class="fil0 str0" /><line
     style="stroke:param(outline) #ffffff; fill:param(outline) #ffffff"
     id="line12"
     y2="52.305908"
     x2="0.22989474"
     y1="7.6247911"
     x1="59.877129"
     class="fil0 str0" /><path
     inkscape:connector-curvature="0"
     id="path3338"
     d="m 2.9892323,36.485129 c -3.13204392,-3.568035 -3.13204392,-8.622395 0,-12.190433 3.2241674,-3.672982 7.6784447,-3.524608 18.2195307,0.606901 8.592787,3.367887 8.775167,3.366095 18.992166,-0.186607 11.382323,-3.957916 17.350315,-3.285867 18.857383,2.123513 3.058032,10.976196 -4.31832,14.535803 -18.855696,9.0992 l -10.09763,-3.776252 -9.272901,3.558658 C 9.6545112,40.009726 6.2126832,40.157297 2.9892323,36.485129 z M 17.911965,33.664056 c 3.318193,-1.132543 6.033076,-2.605909 6.033076,-3.274142 0,-1.542836 -10.977234,-5.333314 -15.4452852,-5.333314 -3.680428,0 -5.6998879,3.776978 -4.2773885,7.999971 1.076748,3.196561 5.5255709,3.39398 13.6895977,0.607485 z M 55.936094,30.41426 c 0,-2.904103 -1.0008,-4.639647 -2.917965,-5.060257 -3.503753,-0.768689 -16.588773,3.182966 -16.588773,5.009779 0,2.010494 9.628584,5.111226 14.825124,4.774194 3.875017,-0.251321 4.681614,-1.065169 4.681614,-4.723716 z"
     style="stroke:param(outline) #ffffff; fill:param(outline) #ffffff" /></svg>