<?xml version="1.0" encoding="UTF-8" standalone="no"?>
<!-- Created with Inkscape (http://www.inkscape.org/) -->

<svg
   xmlns:dc="http://purl.org/dc/elements/1.1/"
   xmlns:cc="http://creativecommons.org/ns#"
   xmlns:rdf="http://www.w3.org/1999/02/22-rdf-syntax-ns#"
   xmlns:svg="http://www.w3.org/2000/svg"
   xmlns="http://www.w3.org/2000/svg"
   xmlns:sodipodi="http://sodipodi.sourceforge.net/DTD/sodipodi-0.dtd"
   xmlns:inkscape="http://www.inkscape.org/namespaces/inkscape"
   id="svg2"
   version="1.1"
   inkscape:version="0.48.5 r10040"
   width="53.4375"
   height="29.0625"
   viewBox="0 0 53.4375 29.0625"
   sodipodi:docname="montanha.svg">
  <metadata
     id="metadata8">
    <rdf:RDF>
      <cc:Work
         rdf:about="">
        <dc:format>image/svg+xml</dc:format>
        <dc:type
           rdf:resource="http://purl.org/dc/dcmitype/StillImage" />
        <dc:title />
      </cc:Work>
    </rdf:RDF>
  </metadata>
  <defs
     id="defs6" />
  <sodipodi:namedview
     pagecolor="#ffffff"
     bordercolor="#666666"
     borderopacity="1"
     objecttolerance="10"
     gridtolerance="10"
     guidetolerance="10"
     inkscape:pageopacity="0"
     inkscape:pageshadow="2"
     inkscape:window-width="1366"
     inkscape:window-height="735"
     id="namedview4"
     showgrid="false"
     inkscape:zoom="8.1204301"
     inkscape:cx="26.71875"
     inkscape:cy="14.53125"
     inkscape:window-x="0"
     inkscape:window-y="312"
     inkscape:window-maximized="1"
     inkscape:current-layer="svg2" />
  <path
     d="M 4.3159592,26.98058 C 2.8213881,24.573529 8.6933864,9.0173587 11.096549,9.0173587 c 1.04026,0 3.332528,2.7223993 5.10716,6.0654883 0.876751,1.651643 1.501442,2.178535 1.523586,1.285061 0.05621,-2.267948 3.431989,-9.3199615 5.919787,-12.366463 l 2.190986,-2.6830335 2.483291,2.9375376 c 1.365811,1.6156458 3.413773,5.4776303 4.551025,8.5821889 l 2.067732,5.644649 1.196887,-2.633121 c 0.658289,-1.448217 2.027504,-3.662222 3.042699,-4.920008 1.51309,-1.8746567 2.096712,-2.0796199 3.23772,-1.1370592 2.027006,1.6744622 5.163963,9.4152772 5.513987,13.6064172 0.458758,5.493095 -1.669005,5.217639 -2.325661,-0.301077 -0.593842,-4.990812 -2.909691,-10.347973 -4.473328,-10.347973 -1.522523,0 -4.574393,7.588924 -4.597,11.431115 -0.02942,4.999217 -2.414781,4.652289 -3.208014,-0.466576 -0.822584,-5.308271 -4.0312,-14.717094 -5.807616,-17.0300266 -1.433388,-1.8663041 -1.433388,-1.8663041 -2.887251,0 -2.778941,3.5672896 -5.006701,9.6575876 -5.60026,15.3101046 -0.761755,7.254287 -2.680286,7.613145 -3.403679,0.63665 C 15.08198,17.35955 12.625084,12.433932 10.837449,13.025871 9.4857125,13.473468 6.6315119,20.890308 6.5658151,24.126009 6.5147331,26.64191 5.167236,28.351587 4.3159592,26.98058 z"
     id="path3338"
     inkscape:connector-curvature="0"
     style="fill:param(outline) #ffffff" />
</svg>
