<?xml version="1.0" encoding="UTF-8" standalone="no"?>
<!-- Created with Inkscape (http://www.inkscape.org/) -->

<svg
   xmlns:dc="http://purl.org/dc/elements/1.1/"
   xmlns:cc="http://creativecommons.org/ns#"
   xmlns:rdf="http://www.w3.org/1999/02/22-rdf-syntax-ns#"
   xmlns:svg="http://www.w3.org/2000/svg"
   xmlns="http://www.w3.org/2000/svg"
   xmlns:sodipodi="http://sodipodi.sourceforge.net/DTD/sodipodi-0.dtd"
   xmlns:inkscape="http://www.inkscape.org/namespaces/inkscape"
   id="svg2"
   version="1.1"
   inkscape:version="0.48.5 r10040"
   width="44.0625"
   height="32.8125"
   viewBox="0 0 44.0625 32.8125"
   sodipodi:docname="postal.svg">
  <metadata
     id="metadata8">
    <rdf:RDF>
      <cc:Work
         rdf:about="">
        <dc:format>image/svg+xml</dc:format>
        <dc:type
           rdf:resource="http://purl.org/dc/dcmitype/StillImage" />
        <dc:title />
      </cc:Work>
    </rdf:RDF>
  </metadata>
  <defs
     id="defs6" />
  <sodipodi:namedview
     pagecolor="#ffffff"
     bordercolor="#666666"
     borderopacity="1"
     objecttolerance="10"
     gridtolerance="10"
     guidetolerance="10"
     inkscape:pageopacity="0"
     inkscape:pageshadow="2"
     inkscape:window-width="640"
     inkscape:window-height="480"
     id="namedview4"
     showgrid="false"
     inkscape:zoom="7.192381"
     inkscape:cx="22.03125"
     inkscape:cy="16.40625"
     inkscape:window-x="1814"
     inkscape:window-y="119"
     inkscape:window-maximized="0"
     inkscape:current-layer="svg2" />
  <path
     style="fill:param(outline) #ffffff"
     d="m 3.610964,13.52026 0,-10.7435121 18.263374,0 18.263374,0 0,10.7435121 0,10.743511 -18.263374,0 -18.263374,0 0,-10.743511 z m 28.707367,6.971149 c -4.681768,-3.998264 -7.579489,-5.384438 -9.106426,-4.356214 -1.049889,0.706984 -1.625245,0.706984 -2.675134,0 -1.526938,-1.028224 -4.424658,0.35795 -9.106426,4.356214 l -2.6820604,2.290499 13.1260534,0 13.126053,0 -2.68206,-2.290499 z M 11.925187,18.208542 c 2.986785,-2.107838 5.317163,-4.024999 5.178621,-4.260358 -0.138544,-0.235359 -2.820185,-2.395839 -5.959203,-4.8010669 l -5.7073036,-4.3731434 0,8.6335013 c 0,4.748426 0.2379077,8.633501 0.5286836,8.633501 0.290776,0 2.9724168,-1.724596 5.959202,-3.832434 z M 38.311374,13.52026 c 0,-4.6863938 -0.321058,-8.5207166 -0.713461,-8.5207166 -0.392404,0 -3.166154,2.0174333 -6.163889,4.4831854 l -5.450427,4.4831842 5.479012,4.008646 c 3.013457,2.204756 5.787207,4.021646 6.163889,4.037532 0.376682,0.01588 0.684876,-3.805438 0.684876,-8.491831 z m -10.044855,-3.7046596 6.803056,-5.5569888 -13.651822,0 -13.651821,0 6.803057,5.5569888 c 3.74168,3.0563436 6.823626,5.5569886 6.848764,5.5569886 0.02514,0 3.107085,-2.500645 6.848766,-5.5569886 z"
     id="path3338"
     inkscape:connector-curvature="0" />
</svg>
