<?xml version="1.0" encoding="UTF-8" standalone="no"?>
<!-- Created with Inkscape (http://www.inkscape.org/) -->

<svg
   xmlns:dc="http://purl.org/dc/elements/1.1/"
   xmlns:cc="http://creativecommons.org/ns#"
   xmlns:rdf="http://www.w3.org/1999/02/22-rdf-syntax-ns#"
   xmlns:svg="http://www.w3.org/2000/svg"
   xmlns="http://www.w3.org/2000/svg"
   xmlns:sodipodi="http://sodipodi.sourceforge.net/DTD/sodipodi-0.dtd"
   xmlns:inkscape="http://www.inkscape.org/namespaces/inkscape"
   id="svg2"
   version="1.1"
   inkscape:version="0.48.5 r10040"
   width="53.4375"
   height="24.375"
   viewBox="0 0 53.4375 24.375"
   sodipodi:docname="pqd.svg">
  <metadata
     id="metadata8">
    <rdf:RDF>
      <cc:Work
         rdf:about="">
        <dc:format>image/svg+xml</dc:format>
        <dc:type
           rdf:resource="http://purl.org/dc/dcmitype/StillImage" />
        <dc:title />
      </cc:Work>
    </rdf:RDF>
  </metadata>
  <defs
     id="defs6" />
  <sodipodi:namedview
     pagecolor="#ffffff"
     bordercolor="#666666"
     borderopacity="1"
     objecttolerance="10"
     gridtolerance="10"
     guidetolerance="10"
     inkscape:pageopacity="0"
     inkscape:pageshadow="2"
     inkscape:window-width="1366"
     inkscape:window-height="735"
     id="namedview4"
     showgrid="false"
     inkscape:zoom="9.0011696"
     inkscape:cx="26.71875"
     inkscape:cy="12.1875"
     inkscape:window-x="0"
     inkscape:window-y="312"
     inkscape:window-maximized="1"
     inkscape:current-layer="svg2" />
  <path
     d="M 24.598779,20.050673 C 20.143327,15.903597 15.16444,15.570091 10.927858,19.13494 c -1.5319638,1.289062 -3.2518323,2.34375 -3.82193,2.34375 -1.992456,0 -1.0090507,-1.800547 2.4061066,-4.405415 C 14.18165,13.511587 20.32641,13.426433 24.892364,16.860135 l 3.208273,2.412694 3.22556,-2.205305 c 4.366002,-2.985023 7.070098,-3.53111 11.263684,-2.274681 3.755263,1.125104 8.479506,4.365628 8.479506,5.816391 0,1.538142 -1.999452,0.931413 -4.858471,-1.474294 -4.774282,-4.017293 -12.058997,-2.915027 -16.704029,2.527523 -1.321535,1.548433 -1.617209,1.451335 -4.908108,-1.61179 z"
     id="path3338"
     inkscape:connector-curvature="0"
     style="fill:param(outline) #ffffff" />
</svg>
