<?xml version="1.0" encoding="UTF-8" standalone="no"?>
<!-- Created with Inkscape (http://www.inkscape.org/) -->

<svg
   xmlns:dc="http://purl.org/dc/elements/1.1/"
   xmlns:cc="http://creativecommons.org/ns#"
   xmlns:rdf="http://www.w3.org/1999/02/22-rdf-syntax-ns#"
   xmlns:svg="http://www.w3.org/2000/svg"
   xmlns="http://www.w3.org/2000/svg"
   xmlns:sodipodi="http://sodipodi.sourceforge.net/DTD/sodipodi-0.dtd"
   xmlns:inkscape="http://www.inkscape.org/namespaces/inkscape"
   id="svg2"
   version="1.1"
   inkscape:version="0.48.5 r10040"
   width="30.9375"
   height="38.4375"
   viewBox="0 0 30.9375 38.4375"
   sodipodi:docname="selva.svg">
  <metadata
     id="metadata8">
    <rdf:RDF>
      <cc:Work
         rdf:about="">
        <dc:format>image/svg+xml</dc:format>
        <dc:type
           rdf:resource="http://purl.org/dc/dcmitype/StillImage" />
        <dc:title />
      </cc:Work>
    </rdf:RDF>
  </metadata>
  <defs
     id="defs6" />
  <sodipodi:namedview
     pagecolor="#ffffff"
     bordercolor="#666666"
     borderopacity="1"
     objecttolerance="10"
     gridtolerance="10"
     guidetolerance="10"
     inkscape:pageopacity="0"
     inkscape:pageshadow="2"
     inkscape:window-width="640"
     inkscape:window-height="480"
     id="namedview4"
     showgrid="false"
     inkscape:zoom="6.1398374"
     inkscape:cx="15.46875"
     inkscape:cy="19.21875"
     inkscape:window-x="2085"
     inkscape:window-y="58"
     inkscape:window-maximized="0"
     inkscape:current-layer="svg2" />
  <path
     style="fill:param(outline) #ffffff"
     d="m 14.120938,25.795148 c 0.410535,-0.491565 0.728223,-1.667852 0.728223,-2.696345 0,-1.737235 -0.03844,-1.786691 -0.804678,-1.035275 -1.103382,1.082038 -2.851314,0.989997 -3.847312,-0.20259 -1.7734418,-2.123481 -0.5602966,-6.637233 1.783866,-6.637233 0.79346,0 0.925338,-0.223717 0.777089,-1.318254 -0.26761,-1.975799 1.321257,-3.9266379 3.198065,-3.9266379 1.770498,0 2.853128,1.3745929 2.853128,3.6225549 0,1.290532 0.187736,1.543823 1.327313,1.790794 2.207289,0.47837 2.922494,3.94265 1.280855,6.204156 -1.032178,1.421917 -2.393478,1.604619 -3.830314,0.514072 -0.962802,-0.730758 -0.977942,-0.712073 -0.977942,1.206986 0,1.292802 0.222274,2.041661 0.660026,2.223689 1.371073,0.570119 0.577083,1.126043 -1.608258,1.126043 -2.169606,0 -2.236604,-0.03793 -1.540061,-0.87196 z m 0.02966,-4.611337 c 0.560715,-0.655612 1.308776,-1.192021 1.662356,-1.192021 0.353579,0 1.107919,0.536409 1.676309,1.192021 1.272484,1.467749 2.330214,1.512588 3.502999,0.148497 1.815872,-2.112081 0.401247,-6.004825 -2.001301,-5.507148 -0.998165,0.206766 -1.038222,0.12272 -0.778937,-1.634334 0.475392,-3.22151 -2.211407,-4.9829389 -4.242901,-2.781587 -0.982587,1.064744 -1.100488,2.000371 -0.424535,3.369005 0.398185,0.806225 0.305655,0.92227 -0.735384,0.92227 -1.708317,0 -2.800238,1.269176 -2.800238,3.254812 0,3.194099 2.270788,4.415942 4.14163,2.228485 z"
     id="path3338"
     inkscape:connector-curvature="0" />
</svg>
