<?xml version="1.0" encoding="UTF-8" standalone="no"?>
<!-- Created with Inkscape (http://www.inkscape.org/) -->

<svg
   xmlns:dc="http://purl.org/dc/elements/1.1/"
   xmlns:cc="http://creativecommons.org/ns#"
   xmlns:rdf="http://www.w3.org/1999/02/22-rdf-syntax-ns#"
   xmlns:svg="http://www.w3.org/2000/svg"
   xmlns="http://www.w3.org/2000/svg"
   xmlns:sodipodi="http://sodipodi.sourceforge.net/DTD/sodipodi-0.dtd"
   xmlns:inkscape="http://www.inkscape.org/namespaces/inkscape"
   id="svg2"
   version="1.1"
   inkscape:version="0.48.5 r10040"
   width="41.25"
   height="35.625"
   viewBox="0 0 41.25 35.625"
   sodipodi:docname="sv_militar_TG.svg">
  <metadata
     id="metadata8">
    <rdf:RDF>
      <cc:Work
         rdf:about="">
        <dc:format>image/svg+xml</dc:format>
        <dc:type
           rdf:resource="http://purl.org/dc/dcmitype/StillImage" />
        <dc:title />
      </cc:Work>
    </rdf:RDF>
  </metadata>
  <defs
     id="defs6" />
  <sodipodi:namedview
     pagecolor="#ffffff"
     bordercolor="#666666"
     borderopacity="1"
     objecttolerance="10"
     gridtolerance="10"
     guidetolerance="10"
     inkscape:pageopacity="0"
     inkscape:pageshadow="2"
     inkscape:window-width="1181"
     inkscape:window-height="800"
     id="namedview4"
     showgrid="false"
     inkscape:zoom="6.6245614"
     inkscape:cx="5.529661"
     inkscape:cy="10.717691"
     inkscape:window-x="1881"
     inkscape:window-y="50"
     inkscape:window-maximized="0"
     inkscape:current-layer="svg2" />
  <g
     id="g3762"
     transform="matrix(0.60100596,0,0,0.58711272,44.569972,13.926077)">
    <path
       d="m -20.076801,6.4909959 c 0,9.9209411 -8.245265,17.9634531 -18.416313,17.9634531 -10.171049,0 -18.416314,-8.042512 -18.416314,-17.9634531 0,-9.9209413 8.245265,-17.9634529 18.416314,-17.9634529 10.171048,0 18.416313,8.0425116 18.416313,17.9634529 z"
       sodipodi:ry="17.963453"
       sodipodi:rx="18.416313"
       sodipodi:cy="6.4909959"
       sodipodi:cx="-38.493114"
       id="path2988"
       style="fill:none;stroke:param(outline) #ffffff;"
       sodipodi:type="arc" />
    <path
       transform="translate(7.6986229,8.6043432)"
       d="m -34.417374,-1.9623941 c 0,6.7529095 -5.40673,12.2272241 -12.076271,12.2272241 -6.66954,0 -12.076271,-5.4743146 -12.076271,-12.2272241 0,-6.7529096 5.406731,-12.2272239 12.076271,-12.2272239 6.669541,0 12.076271,5.4743143 12.076271,12.2272239 z"
       sodipodi:ry="12.227224"
       sodipodi:rx="12.076271"
       sodipodi:cy="-1.9623941"
       sodipodi:cx="-46.493645"
       id="path2990"
       style="fill:none;stroke:param(outline) #ffffff;stroke-width:1;stroke-linecap:butt;stroke-linejoin:miter;stroke-miterlimit:4;stroke-opacity:1;stroke-dasharray:none"
       sodipodi:type="arc" />
    <path
       transform="translate(-7.6986229,-37.587394)"
       d="m -23.699682,44.304821 c 0,3.87667 -3.244038,7.019332 -7.245762,7.019332 -4.001724,0 -7.245762,-3.142662 -7.245762,-7.019332 0,-3.87667 3.244038,-7.019332 7.245762,-7.019332 4.001724,0 7.245762,3.142662 7.245762,7.019332 z"
       sodipodi:ry="7.0193324"
       sodipodi:rx="7.2457623"
       sodipodi:cy="44.304821"
       sodipodi:cx="-30.945444"
       id="path2992"
       style="fill:none;stroke:param(outline) #ffffff;stroke-width:1;stroke-linecap:butt;stroke-linejoin:miter;stroke-miterlimit:4;stroke-opacity:1;stroke-dasharray:none"
       sodipodi:type="arc" />
  </g>
</svg>

