<?xml version="1.0" encoding="UTF-8" standalone="no"?>
<!-- Created with Inkscape (http://www.inkscape.org/) -->

<svg
   xmlns:dc="http://purl.org/dc/elements/1.1/"
   xmlns:cc="http://creativecommons.org/ns#"
   xmlns:rdf="http://www.w3.org/1999/02/22-rdf-syntax-ns#"
   xmlns:svg="http://www.w3.org/2000/svg"
   xmlns="http://www.w3.org/2000/svg"
   xmlns:sodipodi="http://sodipodi.sourceforge.net/DTD/sodipodi-0.dtd"
   xmlns:inkscape="http://www.inkscape.org/namespaces/inkscape"
   id="svg2"
   version="1.1"
   inkscape:version="0.48.5 r10040"
   width="32.8125"
   height="32.8125"
   viewBox="0 0 32.8125 32.8125"
   sodipodi:docname="transporte.svg">
  <metadata
     id="metadata8">
    <rdf:RDF>
      <cc:Work
         rdf:about="">
        <dc:format>image/svg+xml</dc:format>
        <dc:type
           rdf:resource="http://purl.org/dc/dcmitype/StillImage" />
        <dc:title />
      </cc:Work>
    </rdf:RDF>
  </metadata>

  <sodipodi:namedview
     pagecolor="#ffffff"
     bordercolor="#666666"
     borderopacity="1"
     objecttolerance="10"
     gridtolerance="10"
     guidetolerance="10"
     inkscape:pageopacity="0"
     inkscape:pageshadow="2"
     inkscape:window-width="1005"
     inkscape:window-height="716"
     id="namedview4"
     showgrid="false"
     inkscape:zoom="7.192381"
     inkscape:cx="16.40625"
     inkscape:cy="16.40625"
     inkscape:window-x="2132"
     inkscape:window-y="89"
     inkscape:window-maximized="0"
     inkscape:current-layer="svg2" />
  <path
     style="fill:param(outline) #ffffff"
     d="M 13.159573,21.899711 C 5.2235349,18.406792 7.9776857,8.2534428 16.861197,8.2534428 c 3.463307,0 5.884025,1.3302131 7.47715,4.1087822 1.044833,1.822291 1.237584,2.717225 0.927972,4.308523 -0.496636,2.552529 -3.112211,5.174396 -5.81141,5.825391 -2.900485,0.69954 -3.474385,0.645168 -6.295336,-0.596428 z m 2.71993,-3.577717 -0.178126,-1.255815 -1.926724,1.732757 -1.926724,1.732756 1.926724,0.708001 c 1.877246,0.689819 1.931298,0.677572 2.10485,-0.476943 0.09797,-0.651717 0.09797,-1.750058 0,-2.440756 z m 3.735963,3.132637 c 0.788611,-0.312006 1.433838,-0.820776 1.433838,-1.130599 0,-0.596813 -2.885236,-3.190332 -3.549177,-3.190332 -0.215271,0 -0.391401,1.099849 -0.391401,2.444109 0,2.594336 0.23966,2.773773 2.50674,1.876822 z m -4.7585,-5.394464 c 0,-0.216113 -1.139952,-0.392931 -2.533227,-0.392931 -2.184809,0 -2.533229,0.138885 -2.533229,1.009779 0,0.555378 0.276703,1.458731 0.614896,2.00745 0.596246,0.967412 0.673077,0.948703 2.533229,-0.616848 1.055082,-0.887986 1.918331,-1.791338 1.918331,-2.00745 z m 8.702433,1.933814 c 0.421808,-0.871105 0.647951,-1.750985 0.502541,-1.955287 -0.332674,-0.467406 -5.827335,-0.493916 -5.827335,-0.02811 0,0.496998 3.509997,3.567228 4.078183,3.567228 0.263827,0 0.824802,-0.712722 1.246611,-1.583828 z M 14.856966,14.83507 c 0,-0.18884 -0.801516,-1.061422 -1.781148,-1.939071 -1.637637,-1.467153 -1.840304,-1.528107 -2.515325,-0.756503 -0.403797,0.461572 -0.742233,1.334154 -0.75208,1.93907 -0.01595,0.979946 0.258262,1.099849 2.515326,1.099849 1.393275,0 2.533227,-0.154506 2.533227,-0.343345 z m 9.204974,-0.02811 c 0.253516,-0.356193 -1.063021,-3.539118 -1.463864,-3.539118 -0.106919,0 -1.18385,0.879879 -2.393181,1.955286 l -2.198785,1.955286 2.895723,0 c 1.592648,0 3.014696,-0.167157 3.160107,-0.371459 z M 15.729054,9.4180589 c -0.176235,-0.153029 -1.082735,0.03559 -2.014446,0.419158 l -1.694021,0.6973931 1.840395,1.943669 1.840395,1.943669 0.17405,-2.362827 c 0.09573,-1.299554 0.02986,-2.4880321 -0.146373,-2.6410621 z m 4.144013,2.6281311 c 1.802929,-1.615239 1.824476,-1.681954 0.710378,-2.1996971 -0.631918,-0.293665 -1.672243,-0.533937 -2.311832,-0.533937 -1.002944,0 -1.162887,0.302546 -1.162887,2.1996971 0,1.209834 0.203629,2.199698 0.452508,2.199698 0.248881,0 1.289206,-0.749593 2.311833,-1.665761 z"
     id="path3338"
     inkscape:connector-curvature="0" />
</svg>
