<?xml version="1.0" encoding="iso-8859-1"?>
<!-- Generator: Adobe Illustrator 19.0.0, SVG Export Plug-In . SVG Version: 6.00 Build 0)  -->
<svg version="1.1" id="Capa_1" xmlns="http://www.w3.org/2000/svg" xmlns:xlink="http://www.w3.org/1999/xlink" x="0px" y="0px"
	 viewBox="0 0 418.088 418.088" style="enable-background:new 0 0 418.088 418.088;" xml:space="preserve">
<path id="XMLID_410_" d="M115.995,259.555c0,3.866-3.134,7-7,7h-1.947c-3.866,0-7-3.134-7-7s3.134-7,7-7h1.947
	C112.86,252.555,115.995,255.69,115.995,259.555z M160.479,202.044h-1.946c-3.866,0-7,3.134-7,7s3.134,7,7,7h1.946
	c3.866,0,7-3.134,7-7S164.345,202.044,160.479,202.044z M108.995,202.044h-1.947c-3.866,0-7,3.134-7,7s3.134,7,7,7h1.947
	c3.866,0,7-3.134,7-7S112.86,202.044,108.995,202.044z M108.995,151.533h-1.947c-3.866,0-7,3.134-7,7s3.134,7,7,7h1.947
	c3.866,0,7-3.134,7-7S112.86,151.533,108.995,151.533z M160.479,252.555h-1.946c-3.866,0-7,3.134-7,7s3.134,7,7,7h1.946
	c3.866,0,7-3.134,7-7S164.345,252.555,160.479,252.555z M160.479,303.066h-1.946c-3.866,0-7,3.134-7,7s3.134,7,7,7h1.946
	c3.866,0,7-3.134,7-7S164.345,303.066,160.479,303.066z M160.479,151.533h-1.946c-3.866,0-7,3.134-7,7s3.134,7,7,7h1.946
	c3.866,0,7-3.134,7-7S164.345,151.533,160.479,151.533z M108.995,101.022h-1.947c-3.866,0-7,3.134-7,7s3.134,7,7,7h1.947
	c3.866,0,7-3.134,7-7S112.86,101.022,108.995,101.022z M58.484,252.555h-1.948c-3.866,0-7,3.134-7,7s3.134,7,7,7h1.948
	c3.866,0,7-3.134,7-7S62.35,252.555,58.484,252.555z M108.995,303.066h-1.947c-3.866,0-7,3.134-7,7s3.134,7,7,7h1.947
	c3.866,0,7-3.134,7-7S112.86,303.066,108.995,303.066z M58.484,202.044h-1.948c-3.866,0-7,3.134-7,7s3.134,7,7,7h1.948
	c3.866,0,7-3.134,7-7S62.35,202.044,58.484,202.044z M58.484,303.066h-1.948c-3.866,0-7,3.134-7,7s3.134,7,7,7h1.948
	c3.866,0,7-3.134,7-7S62.35,303.066,58.484,303.066z M58.484,101.022h-1.948c-3.866,0-7,3.134-7,7s3.134,7,7,7h1.948
	c3.866,0,7-3.134,7-7S62.35,101.022,58.484,101.022z M58.484,151.533h-1.948c-3.866,0-7,3.134-7,7s3.134,7,7,7h1.948
	c3.866,0,7-3.134,7-7S62.35,151.533,58.484,151.533z M260.529,151.533h-1.947c-3.866,0-7,3.134-7,7s3.134,7,7,7h1.947
	c3.866,0,7-3.134,7-7S264.396,151.533,260.529,151.533z M310.065,252.555h-1.947c-3.866,0-7,3.134-7,7s3.134,7,7,7h1.947
	c3.866,0,7-3.134,7-7S313.932,252.555,310.065,252.555z M310.065,303.066h-1.947c-3.866,0-7,3.134-7,7s3.134,7,7,7h1.947
	c3.866,0,7-3.134,7-7S313.932,303.066,310.065,303.066z M260.529,101.022h-1.947c-3.866,0-7,3.134-7,7s3.134,7,7,7h1.947
	c3.866,0,7-3.134,7-7S264.396,101.022,260.529,101.022z M260.529,202.044h-1.947c-3.866,0-7,3.134-7,7s3.134,7,7,7h1.947
	c3.866,0,7-3.134,7-7S264.396,202.044,260.529,202.044z M418.088,133.279v227.299c0,3.866-3.134,7-7,7H7c-3.866,0-7-3.134-7-7
	V57.511c0-3.866,3.134-7,7-7h328.299c0.066,0,0.133,0,0.2,0.002c0.005-0.001,0.011,0,0.018,0c0.005,0,0.013,0,0.015,0
	c0.853,0.025,1.667,0.203,2.417,0.507c0.845,0.341,1.637,0.855,2.322,1.54l75.753,75.752c0.046,0.046,0.093,0.094,0.138,0.142
	c0.002,0.002,0.004,0.004,0.005,0.006c0.002,0.002,0.004,0.004,0.006,0.006c0.592,0.625,1.046,1.332,1.364,2.083
	C417.892,131.389,418.088,132.311,418.088,133.279z M342.32,126.279h51.869L342.32,74.41V126.279z M404.088,140.279H335.32
	c-3.866,0-7-3.134-7-7V64.511H14v289.066h390.088V140.279z M310.065,202.044h-1.947c-3.866,0-7,3.134-7,7s3.134,7,7,7h1.947
	c3.866,0,7-3.134,7-7S313.932,202.044,310.065,202.044z M310.065,151.533h-1.947c-3.866,0-7,3.134-7,7s3.134,7,7,7h1.947
	c3.866,0,7-3.134,7-7S313.932,151.533,310.065,151.533z M160.479,101.022h-1.946c-3.866,0-7,3.134-7,7s3.134,7,7,7h1.946
	c3.866,0,7-3.134,7-7S164.345,101.022,160.479,101.022z M209.044,202.044h-1.947c-3.866,0-7,3.134-7,7s3.134,7,7,7h1.947
	c3.866,0,7-3.134,7-7S212.91,202.044,209.044,202.044z M209.044,252.555h-1.947c-3.866,0-7,3.134-7,7s3.134,7,7,7h1.947
	c3.866,0,7-3.134,7-7S212.91,252.555,209.044,252.555z M209.044,303.066h-1.947c-3.866,0-7,3.134-7,7s3.134,7,7,7h1.947
	c3.866,0,7-3.134,7-7S212.91,303.066,209.044,303.066z M209.044,151.533h-1.947c-3.866,0-7,3.134-7,7s3.134,7,7,7h1.947
	c3.866,0,7-3.134,7-7S212.91,151.533,209.044,151.533z M260.529,303.066h-1.947c-3.866,0-7,3.134-7,7s3.134,7,7,7h1.947
	c3.866,0,7-3.134,7-7S264.396,303.066,260.529,303.066z M209.044,101.022h-1.947c-3.866,0-7,3.134-7,7s3.134,7,7,7h1.947
	c3.866,0,7-3.134,7-7S212.91,101.022,209.044,101.022z M260.529,252.555h-1.947c-3.866,0-7,3.134-7,7s3.134,7,7,7h1.947
	c3.866,0,7-3.134,7-7S264.396,252.555,260.529,252.555z"/>
<g>
</g>
<g>
</g>
<g>
</g>
<g>
</g>
<g>
</g>
<g>
</g>
<g>
</g>
<g>
</g>
<g>
</g>
<g>
</g>
<g>
</g>
<g>
</g>
<g>
</g>
<g>
</g>
<g>
</g>
</svg>
